<?xml version="1.0" standalone="no"?>
<!DOCTYPE svg PUBLIC "-//W3C//DTD SVG 1.1//EN" "http://www.w3.org/Graphics/SVG/1.1/DTD/svg11.dtd" >
<svg xmlns="http://www.w3.org/2000/svg">
<metadata>
<json>
<![CDATA[
{
	"fontFamily": "sportpartner",
	"majorVersion": 1,
	"minorVersion": 0,
	"version": "Version 1.0",
	"fontId": "sportpartner",
	"psName": "sportpartner",
	"subFamily": "Regular",
	"fullName": "sportpartner",
	"description": "Font generated by IcoMoon."
}
]]>
</json>
</metadata>
<defs>
<font id="sportpartner" horiz-adv-x="1024">
<font-face units-per-em="1024" ascent="960" descent="-64" />
<missing-glyph horiz-adv-x="1024" />
<glyph unicode="&#x20;" horiz-adv-x="512" d="" />
<glyph unicode="&#xe936;" glyph-name="arrow-down" data-tags="arrow down" d="M752.64 432.64c-20.48 20.48-51.2 20.48-71.68 0l-117.76-117.76v389.12c0 30.72-20.48 51.2-51.2 51.2s-51.2-20.48-51.2-51.2v-389.12l-117.76 117.76c-20.48 20.48-51.2 20.48-71.68 0s-20.48-51.2 0-71.68l204.8-204.8c5.12-5.12 10.24-10.24 15.36-10.24 5.12-5.12 15.36-5.12 20.48-5.12s15.36 0 20.48 5.12c5.12 5.12 10.24 5.12 15.36 10.24l204.8 204.8c20.48 20.48 20.48 51.2 0 71.68z" />
<glyph unicode="&#xe937;" glyph-name="arrow-left" data-tags="arrow left" d="M55.045 468.48c-5.127-15.36-5.127-25.6 0-40.96 5.127-5.12 5.127-10.24 10.254-15.36l307.628-307.2c20.508-20.48 51.271-20.48 71.779 0s20.509 51.2 0 71.68l-220.466 220.16h697.288c30.761 0 51.272 20.48 51.272 51.2s-20.511 51.2-51.272 51.2h-697.288l220.466 220.16c20.509 20.48 20.509 51.2 0 71.68-10.254 10.24-20.508 15.36-35.89 15.36s-25.635-5.12-35.89-15.36l-307.628-307.2c-5.127-5.12-10.254-10.24-10.254-15.36z" />
<glyph unicode="&#xe938;" glyph-name="arrow-right" data-tags="arrow right" d="M968.955 427.52c5.125 10.24 5.125 25.6 0 40.96-5.125 5.12-5.125 10.24-10.255 15.36l-307.625 307.2c-20.511 20.48-51.272 20.48-71.782 0-20.506-20.48-20.506-51.2 0-71.68l220.467-220.16h-697.288c-30.762 0-51.271-20.48-51.271-51.2s20.509-51.2 51.271-51.2h697.288l-220.467-220.16c-20.506-20.48-20.506-51.2 0-71.68 10.255-10.24 25.636-15.36 35.891-15.36s25.636 5.12 35.891 15.36l307.625 307.2c5.13 5.12 10.255 10.24 10.255 15.36z" />
<glyph unicode="&#xe939;" glyph-name="arrow-up" data-tags="arrow up" d="M752.64 535.039l-204.8 204.8c-5.12 5.12-10.24 10.24-15.36 10.24-15.36 5.12-25.6 5.12-40.96 0-5.12 0-10.24-5.12-15.36-10.24l-204.8-204.8c-20.48-20.48-20.48-51.2 0-71.68 10.24-10.24 20.48-15.359 35.84-15.359s25.6 5.119 35.84 15.359l117.76 117.76v-389.119c0-30.72 20.48-51.2 51.2-51.2s51.2 20.48 51.2 51.2v389.119l117.76-117.76c20.48-20.479 51.2-20.479 71.68 0s20.48 51.2 0 71.68z" />
<glyph unicode="&#xe93a;" glyph-name="block" data-tags="block" d="M512 908.8c-256 0-460.8-204.8-460.8-460.8s204.8-460.8 460.8-460.8c256 0 460.8 204.8 460.8 460.8s-204.8 460.8-460.8 460.8zM153.6 448c0 199.68 158.72 358.4 358.4 358.4 81.92 0 153.6-25.6 215.040-71.68l-501.76-501.76c-46.080 61.44-71.68 133.12-71.68 215.040zM512 89.6c-81.92 0-153.6 25.6-215.040 71.68l501.76 501.76c46.080-61.44 71.68-133.12 71.68-215.040 0-199.68-158.72-358.4-358.4-358.4z" />
<glyph unicode="&#xe93b;" glyph-name="calendar-add" data-tags="calendar add" d="M972.8 238.080h-51.2v51.2c0 30.72-20.48 51.2-51.2 51.2s-51.2-20.48-51.2-51.2v-51.2h-51.2c-30.72 0-51.2-20.48-51.2-51.2s20.48-51.2 51.2-51.2h51.2v-51.2c0-30.72 20.48-51.2 51.2-51.2s51.2 20.48 51.2 51.2v51.2h51.2c30.72 0 51.2 20.48 51.2 51.2s-20.48 51.2-51.2 51.2zM614.4 135.68h-358.4c-30.72 0-51.2 20.48-51.2 51.2v409.6h614.4v-102.4c0-30.72 20.48-51.2 51.2-51.2s51.2 20.48 51.2 51.2v204.8c0 81.92-66.56 148.48-148.48 153.6v56.32c0 30.72-20.48 51.2-51.2 51.2s-51.2-20.48-51.2-51.2v-56.32h-307.2v56.32c0 30.72-20.48 51.2-51.2 51.2s-51.2-20.48-51.2-51.2v-56.32h-5.12c-87.040 0-153.6-66.56-153.6-153.6v-512c0-87.040 66.56-153.6 153.6-153.6h358.4c30.72 0 51.2 20.48 51.2 51.2s-20.48 51.2-51.2 51.2zM256 750.080h512c30.72 0 51.2-20.48 51.2-51.2v-51.2h-614.4v51.2c0 25.6 20.48 51.2 51.2 51.2z" />
<glyph unicode="&#xe93c;" glyph-name="caret-down" data-tags="caret down" d="M512 243.2c-15.36 0-25.6 5.12-35.84 15.36l-256 256c-20.48 20.48-20.48 51.2 0 71.68s51.2 20.48 71.68 0l220.16-220.16 220.16 220.16c20.48 20.48 51.2 20.48 71.68 0s20.48-51.2 0-71.68l-256-256c-10.24-10.24-20.48-15.36-35.84-15.36z" />
<glyph unicode="&#xe93d;" glyph-name="caret-left" data-tags="caret left" d="M665.6 38.4c-15.36 0-25.6 5.12-35.84 15.36l-358.4 358.4c-10.24 10.24-15.36 20.48-15.36 35.84s5.12 25.6 15.36 35.84l358.4 358.4c20.48 20.48 51.2 20.48 71.68 0s20.48-51.2 0-71.68l-322.56-322.56 322.56-322.56c20.48-20.48 20.48-51.2 0-71.68-10.24-10.24-20.48-15.36-35.84-15.36z" />
<glyph unicode="&#xe93e;" glyph-name="caret-right" data-tags="caret right" d="M358.4 38.4c15.36 0 25.6 5.12 35.84 15.36l358.4 358.4c10.24 10.24 15.36 20.48 15.36 35.84s-5.12 25.6-15.36 35.84l-358.4 358.4c-20.48 20.48-51.2 20.48-71.68 0s-20.48-51.2 0-71.68l322.56-322.56-322.56-322.56c-20.48-20.48-20.48-51.2 0-71.68 10.24-10.24 20.48-15.36 35.84-15.36z" />
<glyph unicode="&#xe93f;" glyph-name="caret-up" data-tags="caret up" d="M768 294.4c-15.36 0-25.6 5.12-35.84 15.36l-220.16 220.16-220.16-220.16c-20.48-20.48-51.2-20.48-71.68 0s-20.48 51.2 0 71.68l256 256c20.48 20.48 51.2 20.48 71.68 0l256-256c20.48-20.48 20.48-51.2 0-71.68-10.24-10.24-20.48-15.36-35.84-15.36z" />
<glyph unicode="&#xe940;" glyph-name="check1" data-tags="check" d="M409.6 192c-15.36 0-25.6 5.12-35.84 15.36l-204.8 204.8c-20.48 20.48-20.48 51.2 0 71.68s51.2 20.48 71.68 0l168.96-168.96 373.76 373.76c20.48 20.48 51.2 20.48 71.68 0s20.48-51.2 0-71.68l-409.6-409.6c-10.24-10.24-20.48-15.36-35.84-15.36z" />
<glyph unicode="&#xe941;" glyph-name="copy" data-tags="copy" d="M870.4 908.8h-512c-56.32 0-102.4-46.080-102.4-102.4v-102.4h-102.4c-56.32 0-102.4-46.080-102.4-102.4v-512c0-56.32 46.080-102.4 102.4-102.4h512c56.32 0 102.4 46.080 102.4 102.4v102.4h102.4c56.32 0 102.4 46.080 102.4 102.4v512c0 56.32-46.080 102.4-102.4 102.4zM665.6 89.6h-512v512h102.4v-307.2c0-56.32 46.080-102.4 102.4-102.4h307.2v-102.4zM358.4 294.4v512h512v-512h-512z" />
<glyph unicode="&#xe942;" glyph-name="cross1" data-tags="cross" d="M583.68 448l220.16 220.16c20.48 20.48 20.48 51.2 0 71.68s-51.2 20.48-71.68 0l-220.16-220.16-220.16 220.16c-20.48 20.48-51.2 20.48-71.68 0s-20.48-51.2 0-71.68l220.16-220.16-220.16-220.16c-20.48-20.48-20.48-51.2 0-71.68 10.24-10.24 20.48-15.36 35.84-15.36s25.6 5.12 35.84 15.36l220.16 220.16 220.16-220.16c10.24-10.24 25.6-15.36 35.84-15.36s25.6 5.12 35.84 15.36c20.48 20.48 20.48 51.2 0 71.68l-220.16 220.16z" />
<glyph unicode="&#xe943;" glyph-name="delete" data-tags="delete" d="M870.4 755.2h-204.8c0 87.040-66.56 153.6-153.6 153.6s-153.6-66.56-153.6-153.6h-204.8c-30.72 0-51.2-20.48-51.2-51.2s20.48-51.2 51.2-51.2h716.8c30.72 0 51.2 20.48 51.2 51.2s-20.48 51.2-51.2 51.2zM460.8 755.2c0 30.72 20.48 51.2 51.2 51.2s51.2-20.48 51.2-51.2h-102.4zM716.8 140.8h-409.6v460.8h-102.4v-460.8c0-56.32 46.080-102.4 102.4-102.4h409.6c56.32 0 102.4 46.080 102.4 102.4v460.8h-102.4v-460.8z" />
<glyph unicode="&#xe944;" glyph-name="fav" data-tags="fav" d="M798.715-43.52c-10.24 0-15.36 0-25.6 5.12l-261.12 138.24-261.12-138.24c-15.36-10.24-35.84-5.12-56.32 5.12-15.36 10.24-25.6 30.72-20.48 51.2l51.2 291.84-209.92 204.801c-15.36 15.361-20.48 35.84-15.36 51.2 10.24 20.48 25.6 35.84 46.080 35.84l291.84 40.96 128 266.24c15.36 35.84 76.8 35.84 92.16 0l128-266.24 291.84-40.96c20.48 0 35.84-15.36 46.080-35.84 5.12-20.48 0-40.96-15.36-51.2l-209.92-204.801 51.2-291.84c5.12-20.48-5.12-40.96-20.48-51.2-10.24-5.12-20.48-10.24-30.72-10.24zM511.995 212.48c10.24 0 15.36 0 25.6-5.12l194.56-102.4-35.84 215.040c-5.12 15.36 5.12 35.84 15.36 46.080l153.6 153.601-215.040 30.72c-15.36 0-30.72 15.36-40.96 25.6l-97.28 194.56-97.28-194.56c-5.12-15.36-20.48-25.6-35.84-30.72l-220.16-30.72 153.6-153.601c10.24-10.24 15.36-30.72 15.36-46.080l-35.84-215.040 194.56 102.4c10.24 5.12 15.36 10.24 25.6 10.24z" />
<glyph unicode="&#xe945;" glyph-name="filter" data-tags="filter" d="M921.6 499.2h-112.64c-20.48 61.44-76.8 102.4-143.36 102.4s-122.88-40.96-143.36-102.4h-419.84c-30.72 0-51.2-20.48-51.2-51.2s20.48-51.2 51.2-51.2h419.84c20.48-61.44 76.8-102.4 143.36-102.4s122.88 40.96 143.36 102.4h112.64c30.72 0 51.2 20.48 51.2 51.2s-20.48 51.2-51.2 51.2zM665.6 396.8c-30.72 0-51.2 20.48-51.2 51.2s20.48 51.2 51.2 51.2c30.72 0 51.2-20.48 51.2-51.2s-20.48-51.2-51.2-51.2zM921.6 192h-419.84c-20.48 61.44-76.8 102.4-143.36 102.4s-122.88-40.96-143.36-102.4h-112.64c-30.72 0-51.2-20.48-51.2-51.2s20.48-51.2 51.2-51.2h112.64c20.48-61.44 76.8-102.4 143.36-102.4s122.88 40.96 143.36 102.4h419.84c30.72 0 51.2 20.48 51.2 51.2s-20.48 51.2-51.2 51.2zM358.4 89.6c-30.72 0-51.2 20.48-51.2 51.2s20.48 51.2 51.2 51.2c30.72 0 51.2-20.48 51.2-51.2s-20.48-51.2-51.2-51.2zM102.4 704h112.64c20.48-61.44 76.8-102.4 143.36-102.4s122.88 40.96 143.36 102.4h419.84c30.72 0 51.2 20.48 51.2 51.2s-20.48 51.2-51.2 51.2h-419.84c-20.48 61.44-76.8 102.4-143.36 102.4s-122.88-40.96-143.36-102.4h-112.64c-30.72 0-51.2-20.48-51.2-51.2s20.48-51.2 51.2-51.2zM358.4 806.4c30.72 0 51.2-20.48 51.2-51.2s-20.48-51.2-51.2-51.2c-30.72 0-51.2 20.48-51.2 51.2s20.48 51.2 51.2 51.2z" />
<glyph unicode="&#xe946;" glyph-name="hamburger1" data-tags="hamburger" d="M870.4 396.8h-716.8c-30.72 0-51.2 20.48-51.2 51.2s20.48 51.2 51.2 51.2h716.8c30.72 0 51.2-20.48 51.2-51.2s-20.48-51.2-51.2-51.2zM870.4 140.8h-716.8c-30.72 0-51.2 20.48-51.2 51.2s20.48 51.2 51.2 51.2h716.8c30.72 0 51.2-20.48 51.2-51.2s-20.48-51.2-51.2-51.2zM870.4 652.8h-716.8c-30.72 0-51.2 20.48-51.2 51.2s20.48 51.2 51.2 51.2h716.8c30.72 0 51.2-20.48 51.2-51.2s-20.48-51.2-51.2-51.2z" />
<glyph unicode="&#xe947;" glyph-name="inbox1" data-tags="inbox" d="M921.6 38.4h-819.2c-30.72 0-51.2 20.48-51.2 51.2v563.2c0 30.72 20.48 51.2 51.2 51.2h256c30.72 0 51.2-20.48 51.2-51.2s20.48-51.2 51.2-51.2h102.4c30.72 0 51.2 20.48 51.2 51.2s20.48 51.2 51.2 51.2h256c30.72 0 51.2-20.48 51.2-51.2v-563.2c0-30.72-20.48-51.2-51.2-51.2zM153.6 140.8h716.8v460.8h-163.84c-20.48-61.44-76.8-102.4-143.36-102.4h-102.4c-66.56 0-122.88 40.96-143.36 102.4h-163.84v-460.8zM819.2 755.2h-614.4c-30.72 0-51.2 20.48-51.2 51.2s20.48 51.2 51.2 51.2h614.4c30.72 0 51.2-20.48 51.2-51.2s-20.48-51.2-51.2-51.2z" />
<glyph unicode="&#xe948;" glyph-name="mail" data-tags="mail" d="M819.2 806.4h-614.4c-87.040 0-153.6-66.56-153.6-153.6v-409.6c0-87.040 66.56-153.6 153.6-153.6h614.4c87.040 0 153.6 66.56 153.6 153.6v409.6c0 87.040-66.56 153.6-153.6 153.6zM819.2 704h5.12l-312.32-225.28-312.32 225.28h619.52zM870.4 243.2c0-30.72-20.48-51.2-51.2-51.2h-614.4c-30.72 0-51.2 20.48-51.2 51.2v409.6c0 5.12 0 10.24 5.12 15.36l337.92-240.64c5.12-5.12 10.24-5.12 15.36-5.12s10.24 0 15.36 5.12l337.92 240.64c5.12-5.12 5.12-10.24 5.12-15.36v-409.6z" />
<glyph unicode="&#xe949;" glyph-name="member-add" data-tags="member add" d="M870.4 499.2h-51.2v51.2c0 30.72-20.48 51.2-51.2 51.2s-51.2-20.48-51.2-51.2v-51.2h-51.2c-30.72 0-51.2-20.48-51.2-51.2s20.48-51.2 51.2-51.2h51.2v-51.2c0-30.72 20.48-51.2 51.2-51.2s51.2 20.48 51.2 51.2v51.2h51.2c30.72 0 51.2 20.48 51.2 51.2s-20.48 51.2-51.2 51.2zM409.6 448c112.64 0 204.8 92.16 204.8 204.8s-92.16 204.8-204.8 204.8c-112.64 0-204.8-92.16-204.8-204.8s92.16-204.8 204.8-204.8zM409.6 755.2c56.32 0 102.4-46.080 102.4-102.4s-46.080-102.4-102.4-102.4c-56.32 0-102.4 46.080-102.4 102.4s46.080 102.4 102.4 102.4zM471.040 396.8h-122.88c-133.12 0-245.76-112.64-245.76-245.76v-20.48c0-51.2 40.96-92.16 92.16-92.16h435.2c51.2 0 92.16 40.96 92.16 92.16v20.48c-5.12 133.12-117.76 245.76-250.88 245.76zM614.4 140.8h-409.6v10.24c0 76.8 66.56 143.36 143.36 143.36h122.88c81.92 0 143.36-66.56 143.36-143.36v-10.24z" />
<glyph unicode="&#xe94a;" glyph-name="member" data-tags="member" d="M512 448c-112.64 0-204.8 92.16-204.8 204.8s92.16 204.8 204.8 204.8c112.64 0 204.8-92.16 204.8-204.8s-92.16-204.8-204.8-204.8zM512 755.2c-56.32 0-102.4-46.080-102.4-102.4s46.080-102.4 102.4-102.4c56.32 0 102.4 46.080 102.4 102.4s-46.080 102.4-102.4 102.4zM727.040 38.4h-430.080c-51.2 0-92.16 40.96-92.16 92.16v20.48c0 133.12 112.64 245.76 245.76 245.76h122.88c138.24 0 245.76-112.64 245.76-245.76v-20.48c0-51.2-40.96-92.16-92.16-92.16zM307.2 140.8h409.6v10.24c0 81.92-66.56 143.36-143.36 143.36h-122.88c-76.8 0-143.36-66.56-143.36-143.36v-10.24z" />
<glyph unicode="&#xe94b;" glyph-name="members1" data-tags="members" d="M716.8 857.6c-76.8 0-138.24-40.96-174.080-102.4 10.24-30.72 20.48-66.56 20.48-102.4s-10.24-71.68-20.48-102.4c35.84-61.44 102.4-102.4 174.080-102.4 112.64 0 204.8 92.16 204.8 204.8s-92.16 204.8-204.8 204.8zM716.8 550.4c-56.32 0-102.4 46.080-102.4 102.4s46.080 102.4 102.4 102.4c56.32 0 102.4-46.080 102.4-102.4s-46.080-102.4-102.4-102.4zM778.24 396.8h-122.88c-35.84 0-66.56-5.12-97.28-20.48 25.6-25.6 51.2-51.2 71.68-87.040 10.24 0 15.36 5.12 25.6 5.12h122.88c81.92 0 143.36-66.56 143.36-143.36v-10.24h-256v-10.24c0-35.84-15.36-66.56-35.84-92.16h302.080c51.2 0 92.16 40.96 92.16 92.16v20.48c0 133.12-112.64 245.76-245.76 245.76zM307.2 448c-112.64 0-204.8 92.16-204.8 204.8s92.16 204.8 204.8 204.8c112.64 0 204.8-92.16 204.8-204.8s-92.16-204.8-204.8-204.8zM307.2 755.2c-56.32 0-102.4-46.080-102.4-102.4s46.080-102.4 102.4-102.4c56.32 0 102.4 46.080 102.4 102.4s-46.080 102.4-102.4 102.4zM522.24 38.4h-430.080c-51.2 0-92.16 40.96-92.16 92.16v20.48c0 133.12 112.64 245.76 245.76 245.76h122.88c138.24 0 245.76-112.64 245.76-245.76v-20.48c0-51.2-40.96-92.16-92.16-92.16zM102.4 140.8h409.6v10.24c0 81.92-66.56 143.36-143.36 143.36h-122.88c-76.8 0-143.36-66.56-143.36-143.36v-10.24z" />
<glyph unicode="&#xe94c;" glyph-name="messages1" data-tags="messages" d="M511.989-12.8c-7.948 0-15.788 1.848-22.897 5.407-7.11 3.553-13.294 8.714-18.063 15.073l-105.472 140.288c-65.201 6.113-129.564 19.154-192 38.912-35.858 11.694-68.27 32.072-94.353 59.315s-45.028 60.513-55.151 96.845c-16.368 59.187-24.466 120.353-24.064 181.759-0.167 60.55 7.929 120.839 24.064 179.2 9.751 36.804 28.53 70.594 54.636 98.309s58.713 48.479 94.868 60.411c109.703 32.982 223.905 48.531 338.432 46.080 114.53 2.451 228.731-13.098 338.433-46.080 36.157-11.933 68.762-32.697 94.868-60.411s44.882-61.505 54.636-98.309c16.133-58.361 24.233-118.65 24.064-179.2 0.399-61.407-7.695-122.572-24.064-181.759-10.122-36.332-29.066-69.601-55.153-96.845-26.081-27.244-58.496-47.621-94.351-59.315-62.438-19.758-126.802-32.799-192-38.912l-105.472-140.288c-4.772-6.359-10.952-11.52-18.063-15.073-7.112-3.558-14.95-5.407-22.897-5.407zM511.989 806.399c-103.921 2.667-207.608-11.158-307.2-40.96-19.823-6.638-37.71-18.049-52.085-33.227s-24.797-33.659-30.347-53.813c-13.699-50.036-20.418-101.725-19.968-153.6-0.45-51.875 6.269-103.562 19.968-153.599 5.551-20.157 15.972-38.636 30.347-53.816 14.375-15.176 32.262-26.588 52.085-33.224 62.413-19.364 126.828-31.56 192-36.352 7.206-0.538 14.216-2.596 20.57-6.036 6.353-3.446 11.907-8.192 16.294-13.932l77.824-102.4 77.825 102.4c4.388 5.74 9.938 10.486 16.292 13.932 6.354 3.441 13.368 5.499 20.572 6.036 65.516 4.716 130.278 16.911 193.024 36.352 19.917 6.564 37.908 17.946 52.378 33.126 14.469 15.186 24.965 33.7 30.566 53.914 13.696 50.038 20.419 101.724 19.968 153.599 0.451 51.875-6.272 103.564-19.968 153.6-5.601 20.211-16.097 38.729-30.566 53.912s-32.461 26.562-52.378 33.128c-99.594 29.802-203.279 43.627-307.201 40.96z" />
<glyph unicode="&#xe94d;" glyph-name="min" data-tags="min" d="M819.2 396.8h-614.4c-30.72 0-51.2 20.48-51.2 51.2s20.48 51.2 51.2 51.2h614.4c30.72 0 51.2-20.48 51.2-51.2s-20.48-51.2-51.2-51.2z" />
<glyph unicode="&#xe94e;" glyph-name="more1" data-tags="more" d="M512 345.6c56.556 0 102.4 45.844 102.4 102.4 0 56.554-45.844 102.4-102.4 102.4-56.554 0-102.4-45.846-102.4-102.4 0-56.556 45.846-102.4 102.4-102.4zM153.6 345.6c56.554 0 102.4 45.844 102.4 102.4 0 56.554-45.846 102.4-102.4 102.4s-102.4-45.846-102.4-102.4c0-56.556 45.846-102.4 102.4-102.4zM870.4 345.6c56.556 0 102.4 45.844 102.4 102.4 0 56.554-45.844 102.4-102.4 102.4s-102.4-45.846-102.4-102.4c0-56.556 45.844-102.4 102.4-102.4z" />
<glyph unicode="&#xe94f;" glyph-name="new-message1" data-tags="new message" d="M967.68 724.481l-76.8-76.8c5.12-5.12 5.12-15.36 10.24-20.48 15.36-46.080 20.48-97.28 20.48-153.6 0-56.321-5.12-107.521-20.48-153.601-10.24-40.96-40.96-71.68-81.92-87.040-35.84-10.24-102.4-30.72-194.56-35.84-15.36 0-25.6-10.24-35.84-20.48l-76.8-102.4-76.8 102.4c-10.24 10.24-20.48 20.48-35.84 20.48-92.16 10.24-153.6 25.6-194.56 35.84-40.96 15.36-71.68 46.080-81.92 87.040-15.36 46.080-20.48 97.28-20.48 153.601s5.12 107.52 20.48 153.6c10.24 40.96 40.96 71.68 81.92 87.040 56.32 20.48 158.72 40.96 307.2 40.96 46.080 0 87.040 0 122.88-5.12l92.16 92.16c-61.44 10.24-128 15.36-215.040 15.36-163.84 0-276.48-25.6-337.92-46.080-71.68-25.6-128-81.92-148.48-158.72-15.36-51.2-25.6-112.64-25.6-179.2s10.24-128.001 25.6-179.201c20.48-76.8 76.8-133.12 148.48-158.72 56.32-20.48 117.76-30.72 194.56-40.96l107.52-138.24c5.12-15.36 20.48-20.48 35.84-20.48s30.72 5.12 40.96 20.48l107.52 138.24c71.68 5.12 138.24 20.48 194.56 40.96 71.68 25.6 128 81.92 148.48 158.72 10.24 51.2 20.48 112.64 20.48 179.201 0 66.56-10.24 128-25.6 179.2-5.12 25.6-15.36 51.2-30.72 71.68zM926.72 785.921l30.72 30.72c20.48 20.48 20.48 51.2 0 71.68s-51.2 20.48-71.68 0l-30.72-30.72 71.68-71.68zM814.080 826.881l-337.92-343.040c-20.48-20.48-20.48-51.201 0-71.681 10.24-10.24 20.48-15.36 35.84-15.36s25.6 5.12 35.84 15.36l337.92 337.921-71.68 76.8z" />
<glyph unicode="&#xe950;" glyph-name="photo1" data-tags="photo" d="M819.2 601.6c28.278 0 51.2 22.923 51.2 51.2s-22.922 51.2-51.2 51.2c-28.278 0-51.2-22.923-51.2-51.2s22.922-51.2 51.2-51.2zM921.6 38.4h-819.2c-56.32 0-102.4 46.080-102.4 102.4v614.4c0 56.32 46.080 102.4 102.4 102.4h179.2c35.84 61.44 102.4 102.4 179.2 102.4h102.4c71.68 0 138.24-40.96 179.2-102.4h179.2c56.32 0 102.4-46.080 102.4-102.4v-614.4c0-56.32-46.080-102.4-102.4-102.4zM102.4 755.2v-614.4h819.2v614.4h-215.040c-20.48 0-40.96 15.36-46.080 35.84-15.36 40.96-56.32 66.56-97.28 66.56h-102.4c-40.96 0-81.92-25.6-97.28-66.56-5.12-20.48-25.6-35.84-46.080-35.84h-215.040zM512 243.2c-128 0-230.4 102.4-230.4 230.4s102.4 230.4 230.4 230.4c128 0 230.4-102.4 230.4-230.4s-102.4-230.4-230.4-230.4zM512 601.6c-71.68 0-128-56.32-128-128s56.32-128 128-128c71.68 0 128 56.32 128 128s-56.32 128-128 128z" />
<glyph unicode="&#xe951;" glyph-name="plus" data-tags="plus" d="M819.2 499.2h-256v256c0 30.72-20.48 51.2-51.2 51.2s-51.2-20.48-51.2-51.2v-256h-256c-30.72 0-51.2-20.48-51.2-51.2s20.48-51.2 51.2-51.2h256v-256c0-30.72 20.48-51.2 51.2-51.2s51.2 20.48 51.2 51.2v256h256c30.72 0 51.2 20.48 51.2 51.2s-20.48 51.2-51.2 51.2z" />
<glyph unicode="&#xe952;" glyph-name="rotate-ccw" data-tags="rotate ccw" d="M742.4 755.2h128c30.72 0 51.2 20.48 51.2 51.2s-20.48 51.2-51.2 51.2h-256c-30.72 0-51.2-20.48-51.2-51.2v-256c0-30.72 20.48-51.2 51.2-51.2s51.2 20.48 51.2 51.2v133.12c66.56-40.96 153.6-112.64 153.6-235.52 0-168.96-138.24-307.2-307.2-307.2s-307.2 138.24-307.2 307.2c0 30.72-20.48 51.2-51.2 51.2s-51.2-20.48-51.2-51.2c0-225.28 184.32-409.6 409.6-409.6s409.6 184.32 409.6 409.6c0 153.6-97.28 250.88-179.2 307.2z" />
<glyph unicode="&#xe953;" glyph-name="rotate-cw" data-tags="rotate cw" d="M870.4 140.8h-128c81.92 56.32 179.2 153.6 179.2 307.2 0 225.28-184.32 409.6-409.6 409.6s-409.6-184.32-409.6-409.6c0-30.72 20.48-51.2 51.2-51.2s51.2 20.48 51.2 51.2c0 168.96 138.24 307.2 307.2 307.2s307.2-138.24 307.2-307.2c0-122.88-87.040-199.68-153.6-235.52v133.12c0 30.72-20.48 51.2-51.2 51.2s-51.2-20.48-51.2-51.2v-256c0-30.72 20.48-51.2 51.2-51.2h256c30.72 0 51.2 20.48 51.2 51.2s-20.48 51.2-51.2 51.2z" />
<glyph unicode="&#xe954;" glyph-name="search1" data-tags="search" d="M957.44 74.24l-215.040 220.16c51.2 66.56 76.8 143.36 76.8 230.4 0 209.92-174.080 384-384 384s-384-174.080-384-384c0-209.92 174.080-384 384-384 87.040 0 168.96 30.72 230.4 76.8l220.16-220.16c10.24-10.24 25.6-15.36 35.84-15.36s25.6 5.12 35.84 15.36c20.48 25.6 20.48 56.32 0 76.8zM153.6 524.8c0 153.6 128 281.6 281.6 281.6s281.6-128 281.6-281.6c0-76.8-30.72-148.48-81.92-199.68s-122.88-81.92-199.68-81.92c-153.6 0-281.6 128-281.6 281.6z" />
<glyph unicode="&#xe955;" glyph-name="send-member" data-tags="send member" d="M409.6 448c112.64 0 204.8 92.16 204.8 204.8s-92.16 204.8-204.8 204.8c-112.64 0-204.8-92.16-204.8-204.8s92.16-204.8 204.8-204.8zM409.6 755.2c56.32 0 102.4-46.080 102.4-102.4s-46.080-102.4-102.4-102.4c-56.32 0-102.4 46.080-102.4 102.4s46.080 102.4 102.4 102.4zM624.64 140.8h-419.84v10.24c0 76.8 66.56 143.36 143.36 143.36 30.72 0 51.2 20.48 51.2 51.2s-20.48 51.2-51.2 51.2c-133.12 0-245.76-112.64-245.76-245.76v-20.48c0-51.2 40.96-92.16 92.16-92.16h435.2c30.72 0 51.2 20.48 51.2 51.2s-25.6 51.2-56.32 51.2zM967.68 325.12c5.12 10.24 5.12 25.6 0 40.96-5.12 5.12-5.12 10.24-10.24 15.36l-153.6 153.6c-20.48 20.48-51.2 20.48-71.68 0s-20.48-51.2 0-71.68l66.56-66.56h-286.72c-30.72 0-51.2-20.48-51.2-51.2s20.48-51.2 51.2-51.2h286.72l-66.56-66.56c-20.48-20.48-20.48-51.2 0-71.68 10.24-10.24 25.6-15.36 35.84-15.36s25.6 5.12 35.84 15.36l153.6 153.6c5.12 5.12 10.24 10.24 10.24 15.36z" />
<glyph unicode="&#xe956;" glyph-name="share1" data-tags="share" d="M768 294.4c-40.96 0-76.8-15.36-102.4-40.96l-307.2 168.96c0 10.24 0 15.36 0 25.6s0 15.36 0 25.6l307.2 168.96c25.6-25.6 61.44-40.96 102.4-40.96 87.040 0 153.6 66.56 153.6 153.6s-66.56 153.6-153.6 153.6c-87.040 0-153.6-66.56-153.6-153.6 0-10.24 0-15.36 0-25.6l-307.2-168.96c-25.6 25.6-61.44 40.96-102.4 40.96-87.040 0-153.6-66.56-153.6-153.6s66.56-153.6 153.6-153.6c40.96 0 76.8 15.36 102.4 40.96l312.32-168.96c0-10.24 0-15.36 0-25.6 0-87.040 66.56-153.6 153.6-153.6s153.6 66.56 153.6 153.6c0 87.040-71.68 153.6-158.72 153.6zM768 806.4c30.72 0 51.2-20.48 51.2-51.2s-20.48-51.2-51.2-51.2c-30.72 0-51.2 20.48-51.2 51.2s20.48 51.2 51.2 51.2zM204.8 396.8c-30.72 0-51.2 20.48-51.2 51.2s20.48 51.2 51.2 51.2c30.72 0 51.2-20.48 51.2-51.2s-20.48-51.2-51.2-51.2zM768 89.6c-30.72 0-51.2 20.48-51.2 51.2s20.48 51.2 51.2 51.2c30.72 0 51.2-20.48 51.2-51.2s-20.48-51.2-51.2-51.2z" />
<glyph unicode="&#xe957;" glyph-name="sorting" data-tags="sorting" d="M768 396.8h-512c-30.72 0-51.2 20.48-51.2 51.2s20.48 51.2 51.2 51.2h512c30.72 0 51.2-20.48 51.2-51.2s-20.48-51.2-51.2-51.2zM665.6 192h-307.2c-30.72 0-51.2 20.48-51.2 51.2s20.48 51.2 51.2 51.2h307.2c30.72 0 51.2-20.48 51.2-51.2s-20.48-51.2-51.2-51.2zM870.4 601.6h-716.8c-30.72 0-51.2 20.48-51.2 51.2s20.48 51.2 51.2 51.2h716.8c30.72 0 51.2-20.48 51.2-51.2s-20.48-51.2-51.2-51.2z" />
</font>
</defs>
</svg>
