<?xml version="1.0" encoding="UTF-8"?>
<svg width="40px" height="40px" viewBox="0 0 40 40" version="1.1" xmlns="http://www.w3.org/2000/svg" xmlns:xlink="http://www.w3.org/1999/xlink">
    <!-- Generator: Sketch 49 (51002) - http://www.bohemiancoding.com/sketch -->
    <title>icons / matches</title>
    <desc>Created with Sketch.</desc>
    <defs>
        <path d="M36,32 L18,32 L18,31 C18,27.141 21.14,24 25,24 C25.552,24 26,23.553 26,23 L26,20.858 C26,20.403 25.692,20.004 25.25,19.89 C23.925,19.547 23,18.359 23,17 L23,12 C23,9.794 24.794,8 27,8 C29.206,8 31,9.794 31,12 L31,17 C31,18.359 30.075,19.547 28.75,19.89 C28.308,20.004 28,20.403 28,20.858 L28,23 C28,23.553 28.448,24 29,24 C32.86,24 36,27.141 36,31 L36,32 Z M30,22.056 L30,21.568 C31.799,20.785 33,19.003 33,17 L33,12 C33,8.691 30.309,6 27,6 C23.691,6 21,8.691 21,12 L21,17 C21,19.003 22.201,20.785 24,21.568 L24,22.056 C21.121,22.375 18.653,24.062 17.248,26.446 C16.319,25.734 15.21,25.245 14,25.071 L14,24.568 C15.799,23.784 17,22.003 17,20 L17,15 C17,11.691 14.309,9 11,9 C7.691,9 5,11.691 5,15 L5,20 C5,22.003 6.201,23.784 8,24.568 L8,25.071 C4.612,25.558 2,28.479 2,32 L2,33 C2,33.553 2.448,34 3,34 L7,34 L11,34 C11.552,34 12,33.553 12,33 C12,32.447 11.552,32 11,32 L7,32 L4,32 C4,29.243 6.243,27 9,27 C9.552,27 10,26.553 10,26 L10,23.858 C10,23.402 9.692,23.005 9.251,22.891 C7.926,22.547 7,21.358 7,20 L7,15 C7,12.794 8.794,11 11,11 C13.206,11 15,12.794 15,15 L15,20 C15,21.358 14.074,22.547 12.749,22.891 C12.308,23.005 12,23.402 12,23.858 L12,26 C12,26.553 12.448,27 13,27 C14.317,27 15.508,27.521 16.402,28.357 C16.144,29.193 16,30.08 16,31 L16,32 L16,34 L17,34 L37,34 C37.552,34 38,33.553 38,33 L38,31 C38,26.375 34.494,22.555 30,22.056 Z" id="path-1"></path>
    </defs>
    <g id="icons-/-matches" stroke="none" stroke-width="1" fill="none" fill-rule="evenodd">
        <mask id="mask-2" fill="white">
            <use xlink:href="#path-1"></use>
        </mask>
        <use id="Page-1" fill="#ffffff" xlink:href="#path-1"></use>
        <g id="colours-/-dark" mask="url(#mask-2)" fill="#ffffff">
            <rect id="Rectangle-4" x="0" y="0" width="40" height="40"></rect>
        </g>
    </g>
</svg>