<svg width="20" height="20" viewBox="0 0 20 20" version="1.1" xmlns="http://www.w3.org/2000/svg" xmlns:xlink="http://www.w3.org/1999/xlink">
<g id="Canvas" fill="none">
<g id="icons small / arrow">
<path id="Fill 1" fill-rule="evenodd" clip-rule="evenodd" d="M 13.923 5.3815C 14.025 5.1375 14.025 4.8615 13.923 4.6175C 13.872 4.4945 13.799 4.3835 13.706 4.2915L 9.707 0.2925C 9.317 -0.0975 8.684 -0.0975 8.293 0.2925C 7.902 0.6835 7.902 1.3165 8.293 1.7065L 10.586 3.9995L 1 3.9995C 0.447 3.9995 0 4.4465 0 4.9995C 0 5.5525 0.447 5.9995 1 5.9995L 10.586 5.9995L 8.293 8.2925C 7.902 8.6835 7.902 9.3165 8.293 9.7065C 8.488 9.9025 8.744 9.9995 9 9.9995C 9.256 9.9995 9.512 9.9025 9.707 9.7065L 13.706 5.7075C 13.799 5.6155 13.872 5.5045 13.923 5.3815" transform="translate(3 5.00031)" fill="black"/>
<mask id="mask0" mask-type="alpha" maskUnits="userSpaceOnUse" x="3" y="5" width="14" height="10">
<path id="Fill 1_2" fill-rule="evenodd" clip-rule="evenodd" d="M 13.923 5.3815C 14.025 5.1375 14.025 4.8615 13.923 4.6175C 13.872 4.4945 13.799 4.3835 13.706 4.2915L 9.707 0.2925C 9.317 -0.0975 8.684 -0.0975 8.293 0.2925C 7.902 0.6835 7.902 1.3165 8.293 1.7065L 10.586 3.9995L 1 3.9995C 0.447 3.9995 0 4.4465 0 4.9995C 0 5.5525 0.447 5.9995 1 5.9995L 10.586 5.9995L 8.293 8.2925C 7.902 8.6835 7.902 9.3165 8.293 9.7065C 8.488 9.9025 8.744 9.9995 9 9.9995C 9.256 9.9995 9.512 9.9025 9.707 9.7065L 13.706 5.7075C 13.799 5.6155 13.872 5.5045 13.923 5.3815" transform="translate(3 5.00031)" fill="white"/>
</mask>
<g mask="url(#mask0)">
<g id="colours / white">
<path id="Rectangle 4" fill-rule="evenodd" clip-rule="evenodd" d="M 0 0L 20 0L 20 20L 0 20L 0 0Z" fill="white"/>
</g>
</g>
</g>
</g>
</svg>
