<svg width="18" height="18" viewBox="0 0 18 18" fill="none" xmlns="http://www.w3.org/2000/svg">
<path fill-rule="evenodd" clip-rule="evenodd" d="M12.707 11.293C13.098 11.684 13.098 12.316 12.707 12.707C12.512 12.902 12.256 13 12 13C11.744 13 11.488 12.902 11.293 12.707L9.00001 10.414L6.70701 12.707C6.51201 12.902 6.25601 13 6.00001 13C5.74401 13 5.48801 12.902 5.29301 12.707C4.90201 12.316 4.90201 11.684 5.29301 11.293L7.58601 9L5.29301 6.707C4.90201 6.316 4.90201 5.684 5.29301 5.293C5.68401 4.902 6.31601 4.902 6.70701 5.293L9.00001 7.586L11.293 5.293C11.684 4.902 12.316 4.902 12.707 5.293C13.098 5.684 13.098 6.316 12.707 6.707L10.414 9L12.707 11.293ZM9 0C4.029 0 0 4.029 0 9C0 13.971 4.029 18 9 18C13.971 18 18 13.971 18 9C18 4.029 13.971 0 9 0Z" fill="black"/>
</svg>
