<svg width="30" height="30" viewBox="0 0 30 30" fill="none" xmlns="http://www.w3.org/2000/svg">
<path fill-rule="evenodd" clip-rule="evenodd" d="M0 15C0 23.271 6.729 30 15 30C23.271 30 30 23.271 30 15C30 6.729 23.271 0 15 0C6.729 0 0 6.729 0 15ZM2 15C2 7.83197 7.83197 2 15 2C22.168 2 28 7.83197 28 15C28 22.168 22.168 28 15 28C7.83197 28 2 22.168 2 15ZM11 8C9.896 8 9 8.896 9 10C9 11.104 9.896 12 11 12C12.104 12 13 11.104 13 10C13 8.896 12.104 8 11 8ZM17 10C17 8.896 17.896 8 19 8C20.104 8 21 8.896 21 10C21 11.104 20.104 12 19 12C17.896 12 17 11.104 17 10ZM15 25.5005C9.40698 25.5005 4.5 20.8275 4.5 15.5005C4.5 15.1625 4.67102 14.8466 4.95502 14.6625C5.23901 14.4775 5.59601 14.4485 5.90503 14.5855C5.94897 14.6055 10.284 16.5005 15 16.5005C19.733 16.5005 24.051 14.6055 24.094 14.5855C24.403 14.4485 24.762 14.4775 25.045 14.6615C25.329 14.8455 25.5 15.1615 25.5 15.5005C25.5 20.8275 20.593 25.5005 15 25.5005ZM15 23.5005C10.783 23.5005 7.48999 20.3265 6.68799 17.0215C8.492 17.6385 11.619 18.5005 15 18.5005C18.381 18.5005 21.508 17.6385 23.312 17.0215C22.51 20.3265 19.217 23.5005 15 23.5005Z" fill="black"/>
</svg>
