<?xml version="1.0" encoding="UTF-8"?>
<svg width="20px" height="20px" viewBox="0 0 20 20" version="1.1" xmlns="http://www.w3.org/2000/svg" xmlns:xlink="http://www.w3.org/1999/xlink">
    <!-- Generator: Sketch 49 (51002) - http://www.bohemiancoding.com/sketch -->
    <title>icons inline / enter</title>
    <desc>Created with Sketch.</desc>
    <defs>
        <path d="M15.4995,4 C15.2235,4 14.9995,4.224 14.9995,4.5 L14.9995,11.5 C14.9995,12.327 14.3265,13 13.4995,13 L5.7065,13 L6.8535,11.854 C7.0485,11.658 7.0485,11.342 6.8535,11.146 C6.6575,10.951 6.3415,10.951 6.1455,11.146 L4.1465,13.146 C4.1005,13.192 4.0635,13.248 4.0385,13.309 C3.9875,13.431 3.9875,13.569 4.0385,13.691 C4.0635,13.752 4.1005,13.808 4.1465,13.854 L6.1455,15.854 C6.2435,15.951 6.3715,16 6.4995,16 C6.6275,16 6.7555,15.951 6.8535,15.854 C7.0485,15.658 7.0485,15.342 6.8535,15.146 L5.7065,14 L13.4995,14 C14.8775,14 15.9995,12.878 15.9995,11.5 L15.9995,4.5 C15.9995,4.224 15.7755,4 15.4995,4" id="path-1"></path>
    </defs>
    <g id="icons-inline-/-enter" stroke="none" stroke-width="1" fill="none" fill-rule="evenodd">
        <mask id="mask-2" fill="white">
            <use xlink:href="#path-1"></use>
        </mask>
        <use id="Fill-1" fill="#000000" xlink:href="#path-1"></use>
        <g id="colours-/-dark" mask="url(#mask-2)" fill="#303030">
            <rect id="Rectangle-4" x="0" y="0" width="20" height="20"></rect>
        </g>
    </g>
</svg>