<?xml version="1.0" encoding="UTF-8"?>
<!DOCTYPE svg PUBLIC "-//W3C//DTD SVG 1.1//EN" "http://www.w3.org/Graphics/SVG/1.1/DTD/svg11.dtd">
<!-- Creator: CorelDRAW X8 -->
<svg xmlns="http://www.w3.org/2000/svg" xml:space="preserve" width="20px" height="15px" version="1.1" style="shape-rendering:geometricPrecision; text-rendering:geometricPrecision; image-rendering:optimizeQuality; fill-rule:evenodd; clip-rule:evenodd"
viewBox="0 0 20 15"
 xmlns:xlink="http://www.w3.org/1999/xlink">
 <defs>
  <style type="text/css">
   <![CDATA[
    .fil0 {fill:black}
   ]]>
  </style>
 </defs>
 <g id="Layer_x0020_1">
  <metadata id="CorelCorpID_0Corel-Layer"/>
  <g id="_1741350502816">
   <path class="fil0" d="M1 13l14 0c1,0 1,0 1,1l0 0c0,0 0,1 -1,1l-14 0c-1,0 -1,-1 -1,-1l0 0c0,-1 0,-1 1,-1z"/>
   <path class="fil0" d="M1 7l18 0c1,0 1,0 1,1l0 0c0,0 0,1 -1,1l-18 0c-1,0 -1,-1 -1,-1l0 0c0,-1 0,-1 1,-1z"/>
   <path class="fil0" d="M1 0l12 0c1,0 1,1 1,1l0 0c0,1 0,1 -1,1l-12 0c-1,0 -1,0 -1,-1l0 0c0,0 0,-1 1,-1z"/>
  </g>
 </g>
</svg>
