<svg width="40" height="30" viewBox="0 0 40 30" fill="none" xmlns="http://www.w3.org/2000/svg">
<path fill-rule="evenodd" clip-rule="evenodd" d="M12.9366 30C7.78961 30 4.22656 25.748 2.9776 21.5341L2.79156 20.894L2.7901 20.889C2.36175 19.4011 1.99121 18.114 0.747557 16.373C0.0875838 15.449 -0.146425 14.406 0.0895979 13.436C0.305601 12.55 0.90161 11.799 1.7276 11.377C2.54657 10.958 3.43158 10.916 4.28155 11.26C5.32361 11.6801 6.21856 12.652 6.93658 13.717V5C6.93658 3.34595 8.28155 2 9.93658 2C10.3256 2 10.6986 2.07495 11.0416 2.21106C11.3886 0.938965 12.5556 0 13.9366 0C15.3166 0 16.4836 0.938965 16.8306 2.21106C17.1736 2.07495 17.5466 2 17.9366 2C19.3166 2 20.4836 2.93896 20.8306 4.21106C21.1736 4.07495 21.5466 4 21.9366 4C23.5906 4 24.9366 5.34595 24.9366 7V20C24.9366 25.514 20.4496 30 14.9366 30H12.9366ZM39.7828 13.4363C39.5668 12.5492 38.9708 11.7992 38.1448 11.3772C37.3268 10.9573 36.4408 10.9163 35.5908 11.2603C34.5488 11.6803 33.6538 12.6512 32.9358 13.7173V5.00024C32.9358 3.34619 31.5908 2.00024 29.9358 2.00024C29.5468 2.00024 29.1738 2.0752 28.8308 2.2113C28.4838 0.938232 27.3168 0.000244141 25.9358 0.000244141C24.5818 0.000244141 23.4378 0.905273 23.0668 2.14124C23.7588 2.30225 24.3868 2.61023 24.9358 3.02527V3.00024C24.9358 2.44922 25.3848 2.00024 25.9358 2.00024C26.4878 2.00024 26.9358 2.44922 26.9358 3.00024V7.00024V14.0002C26.9358 14.5522 27.3838 15.0002 27.9358 15.0002C28.4888 15.0002 28.9358 14.5522 28.9358 14.0002V5.00024C28.9358 4.44922 29.3848 4.00024 29.9358 4.00024C30.4878 4.00024 30.9358 4.44922 30.9358 5.00024V18.0002C30.9358 18.4883 31.2888 18.9053 31.7708 18.9862C32.2558 19.0642 32.7218 18.7872 32.8818 18.3263C33.4718 16.6112 34.9328 13.6813 36.3378 13.1152C36.6498 12.9883 36.9278 13.0012 37.2348 13.1572C37.5408 13.3142 37.7618 13.5883 37.8398 13.9093C37.9368 14.3103 37.8188 14.7603 37.4978 15.2102C36.0536 17.2322 35.6193 18.7417 35.1595 20.3397L35.1588 20.3423L34.9768 20.9662C34.2038 23.5782 31.6378 28.0002 26.9358 28.0002H24.9358C24.5918 28.0002 24.2538 27.9712 23.9208 27.9282C23.3788 28.5422 22.7758 29.0973 22.1198 29.5902C23.0138 29.8533 23.9578 30.0002 24.9358 30.0002H26.9358C32.0828 30.0002 35.6458 25.7483 36.8948 21.5343L37.0808 20.8943L37.0813 20.8925C37.5101 19.4022 37.8803 18.1155 39.1248 16.3733C39.7848 15.4492 40.0188 14.4062 39.7828 13.4363ZM2.63757 13.157C2.8056 13.072 2.9646 13.0291 3.12561 13.0291C3.2586 13.0291 3.39258 13.058 3.53357 13.115C4.93359 13.678 6.3966 16.611 6.9906 18.326C7.15057 18.7889 7.6286 19.064 8.1026 18.9871C8.58362 18.905 8.93658 18.488 8.93658 18V5C8.93658 4.44897 9.38458 4 9.93658 4C10.4876 4 10.9366 4.44897 10.9366 5V14C10.9366 14.552 11.3836 15 11.9366 15C12.4886 15 12.9366 14.552 12.9366 14V3C12.9366 2.44897 13.3846 2 13.9366 2C14.4876 2 14.9366 2.44897 14.9366 3V14C14.9366 14.552 15.3836 15 15.9366 15C16.4886 15 16.9366 14.552 16.9366 14V5C16.9366 4.44897 17.3846 4 17.9366 4C18.4876 4 18.9366 4.44897 18.9366 5V14C18.9366 14.552 19.3836 15 19.9366 15C20.4886 15 20.9366 14.552 20.9366 14V7C20.9366 6.44897 21.3846 6 21.9366 6C22.4876 6 22.9366 6.44897 22.9366 7V20C22.9366 24.411 19.3476 28 14.9366 28H12.9366C8.23358 28 5.66858 23.578 4.89557 20.9659L4.71362 20.342C4.2536 18.743 3.81958 17.234 2.37457 15.21C2.05359 14.76 1.93561 14.3101 2.03259 13.9091C2.11059 13.588 2.3316 13.314 2.63757 13.157Z" transform="translate(0.000305176 -0.000244141)" fill="black"/>
</svg>
