<?xml version="1.0" encoding="iso-8859-1"?>
<!-- Generator: Adobe Illustrator 19.0.0, SVG Export Plug-In . SVG Version: 6.00 Build 0)  -->
<svg version="1.1" id="Capa_1" xmlns="http://www.w3.org/2000/svg" xmlns:xlink="http://www.w3.org/1999/xlink" x="0px" y="0px"
	 viewBox="0 0 512 512" style="enable-background:new 0 0 512 512;" xml:space="preserve">
<g>
	<g>
		<path d="M508.609,206.501l-80.998-98.996C419.03,97.016,406.336,91,392.783,91H119.217c-13.553,0-26.247,6.016-34.828,16.504
			L3.391,206.501C1.163,209.223,0,212.671,0,216v160c0,24.813,20.187,45,45,45h422c24.813,0,45-20.187,45-45V216
			C512,212.696,510.85,209.239,508.609,206.501z M306,366H206c-8.284,0-15-6.716-15-15s6.716-15,15-15h100c8.284,0,15,6.716,15,15
			S314.284,366,306,366z M356,201c-7.518,0-13.875,5.565-14.868,13.018L332.867,276H179.133l-8.265-61.982
			C169.875,206.565,163.518,201,156,201H46.653l60.954-74.499c2.86-3.496,7.092-5.501,11.609-5.501h273.566
			c4.518,0,8.749,2.005,11.609,5.502L465.347,201H356z"/>
	</g>
</g>
<g>
</g>
<g>
</g>
<g>
</g>
<g>
</g>
<g>
</g>
<g>
</g>
<g>
</g>
<g>
</g>
<g>
</g>
<g>
</g>
<g>
</g>
<g>
</g>
<g>
</g>
<g>
</g>
<g>
</g>
</svg>
