<?xml version="1.0" encoding="UTF-8"?>
<svg width="20px" height="20px" viewBox="0 0 20 20" version="1.1" xmlns="http://www.w3.org/2000/svg" xmlns:xlink="http://www.w3.org/1999/xlink">
    <defs>
        <path d="M10.3359,5.4219 L3.4829,12.2749 C2.6129,11.0639 1.9999,9.6249 1.9999,7.9449 C1.9999,5.2179 4.0189,2.9999 6.4999,2.9999 C8.8779,2.9999 10.0539,4.9699 10.3359,5.4219 Z M8.0586,16.1836 L17.7696,6.4726 C17.9146,6.9386 17.9996,7.4316 17.9996,7.9456 C17.9996,13.7206 10.6156,16.7976 10.3006,16.9256 C10.1796,16.9756 10.0516,16.9996 9.9236,16.9996 C9.7936,16.9996 9.6646,16.9756 9.5426,16.9246 C9.4596,16.8906 8.8706,16.6396 8.0586,16.1836 Z M3,18 C2.744,18 2.488,17.902 2.293,17.707 C1.902,17.316 1.902,16.684 2.293,16.293 L16.293,2.293 C16.684,1.902 17.316,1.902 17.707,2.293 C18.098,2.684 18.098,3.316 17.707,3.707 L3.707,17.707 C3.512,17.902 3.256,18 3,18 Z" id="path-1"></path>
    </defs>
    <g id="icons-small-/-not-single" stroke="none" stroke-width="1" fill="none" fill-rule="evenodd">
        <mask id="mask-2" fill="white">
            <use xlink:href="#path-1"></use>
        </mask>
        <use id="Combined-Shape" fill="#000000" xlink:href="#path-1"></use>
        <g id="colours-/-dark" mask="url(#mask-2)" fill="#000000">
            <rect id="Rectangle-4" x="0" y="0" width="20" height="20"></rect>
        </g>
    </g>
</svg>