<?xml version="1.0" encoding="UTF-8"?>
<svg width="20px" height="20px" viewBox="0 0 20 20" version="1.1" xmlns="http://www.w3.org/2000/svg" xmlns:xlink="http://www.w3.org/1999/xlink">
    <!-- Generator: Sketch 49 (51002) - http://www.bohemiancoding.com/sketch -->
    <title>icons small / photo</title>
    <desc>Created with Sketch.</desc>
    <defs>
        <path d="M16,15 C16,15.553 15.553,16 15,16 L5,16 C4.447,16 4,15.553 4,15 L4,10 C4,9.596 4.244,9.23 4.617,9.076 C4.741,9.024 4.871,9 5,9 C5.26,9 5.516,9.102 5.707,9.293 L8.943,12.529 L14.24,6.35 C14.435,6.123 14.714,6 15,6 C15.116,6 15.233,6.021 15.347,6.062 C15.739,6.207 16,6.581 16,7 L16,15 Z M5,4 C5.553,4 6,4.447 6,5 C6,5.553 5.553,6 5,6 C4.447,6 4,5.553 4,5 C4,4.447 4.447,4 5,4 Z M17,1 L3,1 C1.896,1 1,1.896 1,3 L1,17 C1,18.104 1.896,19 3,19 L17,19 C18.104,19 19,18.104 19,17 L19,3 C19,1.896 18.104,1 17,1 Z" id="path-1"></path>
    </defs>
    <g id="icons-small-/-photo" stroke="none" stroke-width="1" fill="none" fill-rule="evenodd">
        <mask id="mask-2" fill="white">
            <use xlink:href="#path-1"></use>
        </mask>
        <use id="Page-1" fill="#000000" xlink:href="#path-1"></use>
        <g id="colours-/-dark" mask="url(#mask-2)" fill="#303030">
            <rect id="Rectangle-4" x="0" y="0" width="20" height="20"></rect>
        </g>
    </g>
</svg>