<?xml version="1.0" encoding="UTF-8"?>
<svg width="40px" height="40px" viewBox="0 0 40 40" version="1.1" xmlns="http://www.w3.org/2000/svg" xmlns:xlink="http://www.w3.org/1999/xlink">
    <!-- Generator: Sketch 49 (51002) - http://www.bohemiancoding.com/sketch -->
    <title>icons / photo</title>
    <desc>Created with Sketch.</desc>
    <defs>
        <path d="M13,33 C13,30.243 15.243,28 18,28 C18.552,28 19,27.553 19,27 L19,24.858 C19,24.402 18.692,24.005 18.251,23.891 C16.926,23.547 16,22.358 16,21 L16,16 C16,13.794 17.794,12 20,12 C22.206,12 24,13.794 24,16 L24,21 C24,22.358 23.074,23.547 21.749,23.891 C21.308,24.005 21,24.402 21,24.858 L21,27 C21,27.553 21.448,28 22,28 C24.757,28 27,30.243 27,33 L20,33 L13,33 Z M34,24 C34.552,24 35,24.447 35,25 L35,31 C35,33.206 33.206,35 31,35 L20,35 L12,35 L9,35 C6.794,35 5,33.206 5,31 L5,9 C5,6.794 6.794,5 9,5 L31,5 C33.206,5 35,6.794 35,9 L35,11 C35,11.553 34.552,12 34,12 C33.448,12 33,11.553 33,11 L33,9 C33,7.897 32.103,7 31,7 L9,7 C7.897,7 7,7.897 7,9 L7,31 C7,32.103 7.897,33 9,33 L11,33 C11,29.479 13.612,26.558 17,26.071 L17,25.568 C15.201,24.784 14,23.003 14,21 L14,16 C14,12.691 16.691,10 20,10 C23.309,10 26,12.691 26,16 L26,21 C26,23.003 24.799,24.784 23,25.568 L23,26.071 C26.388,26.558 29,29.479 29,33 L31,33 C32.103,33 33,32.103 33,31 L33,25 C33,24.447 33.448,24 34,24 Z M37,17 C37.552,17 38,17.447 38,18 C38,18.553 37.552,19 37,19 L35,19 L35,21 C35,21.553 34.552,22 34,22 C33.448,22 33,21.553 33,21 L33,19 L31,19 C30.448,19 30,18.553 30,18 C30,17.447 30.448,17 31,17 L33,17 L33,15 C33,14.447 33.448,14 34,14 C34.552,14 35,14.447 35,15 L35,17 L37,17 Z" id="path-1"></path>
    </defs>
    <g id="icons-/-photo" stroke="none" stroke-width="1" fill="none" fill-rule="evenodd">
        <mask id="mask-2" fill="white">
            <use xlink:href="#path-1"></use>
        </mask>
        <use id="Combined-Shape" fill="#000000" xlink:href="#path-1"></use>
        <g id="colours-/-dark" mask="url(#mask-2)" fill="#000000">
            <rect id="Rectangle-4" x="0" y="0" width="40" height="40"></rect>
        </g>
    </g>
</svg>