<?xml version="1.0" encoding="UTF-8"?>
<svg width="40px" height="40px" viewBox="0 0 40 40" version="1.1" xmlns="http://www.w3.org/2000/svg" xmlns:xlink="http://www.w3.org/1999/xlink">
    <!-- Generator: Sketch 49 (51002) - http://www.bohemiancoding.com/sketch -->
    <title>icons / photo missing</title>
    <desc>Created with Sketch.</desc>
    <defs>
        <path d="M6,29 C5.448,29 5,28.553 5,28 L5,9 C5,6.794 6.794,5 9,5 L28,5 C28.552,5 29,5.447 29,6 C29,6.553 28.552,7 28,7 L9,7 C7.897,7 7,7.897 7,9 L7,28 C7,28.553 6.552,29 6,29 Z M19,27 C19,27.553 18.552,28 18,28 C17.127,28 16.317,28.245 15.602,28.64 L19,25.242 L19,27 Z M16,19.7578 L14.053,21.7048 C14.02,21.4738 14,21.2388 14,20.9998 L14,15.9998 C14,12.6918 16.691,9.9998 20,9.9998 C21.593,9.9998 23.039,10.6278 24.114,11.6438 L22.694,13.0638 C21.982,12.4088 21.041,11.9998 20,11.9998 C17.794,11.9998 16,13.7938 16,15.9998 L16,19.7578 Z M34,11 C34.552,11 35,11.447 35,12 L35,31 C35,33.206 33.206,35 31,35 L20,35 L12,35 C11.448,35 11,34.553 11,34 L11,33.242 L13.64,30.603 C13.245,31.317 13,32.127 13,33 L20,33 L27,33 C27,30.243 24.757,28 22,28 C21.448,28 21,27.553 21,27 L21,24.858 C21,24.402 21.308,24.005 21.749,23.891 C23.074,23.547 24,22.358 24,21 L24,20.242 L26,18.242 L26,21 C26,23.003 24.799,24.784 23,25.568 L23,26.071 C26.388,26.558 29,29.479 29,33 L31,33 C32.103,33 33,32.103 33,31 L33,12 C33,11.447 33.448,11 34,11 Z M6,35 C5.744,35 5.488,34.902 5.293,34.707 C4.902,34.316 4.902,33.684 5.293,33.293 L33.293,5.293 C33.684,4.902 34.316,4.902 34.707,5.293 C35.098,5.684 35.098,6.316 34.707,6.707 L6.707,34.707 C6.512,34.902 6.256,35 6,35 Z" id="path-1"></path>
    </defs>
    <g id="icons-/-photo-missing" stroke="none" stroke-width="1" fill="none" fill-rule="evenodd">
        <mask id="mask-2" fill="white">
            <use xlink:href="#path-1"></use>
        </mask>
        <use id="Combined-Shape" fill="#000000" xlink:href="#path-1"></use>
        <g id="colours-/-dark" mask="url(#mask-2)" fill="#000000">
            <rect id="Rectangle-4" x="0" y="0" width="40" height="40"></rect>
        </g>
    </g>
</svg>