<?xml version="1.0" encoding="UTF-8"?>
<svg width="20px" height="20px" viewBox="0 0 20 20" version="1.1" xmlns="http://www.w3.org/2000/svg" xmlns:xlink="http://www.w3.org/1999/xlink">
    <!-- Generator: Sketch 49 (51002) - http://www.bohemiancoding.com/sketch -->
    <defs>
        <path d="M16.5,16 C16.776,16 17,16.224 17,16.5 L17,17.5 C17,17.776 16.776,18 16.5,18 L3.5,18 C3.224,18 3,17.776 3,17.5 L3,16.5 C3,16.224 3.224,16 3.5,16 L16.5,16 Z M18.6861,6.2725 C18.9691,6.5395 19.0721,6.9475 18.9491,7.3165 L16.9491,13.3165 C16.8121,13.7245 16.4311,14.0005 16.0001,14.0005 L4.0001,14.0005 C3.5691,14.0005 3.1871,13.7245 3.0511,13.3165 L1.0511,7.3165 C0.9281,6.9475 1.0311,6.5395 1.3141,6.2725 C1.5031,6.0935 1.7491,6.0005 2.0001,6.0005 C2.1251,6.0005 2.2511,6.0235 2.3721,6.0715 L6.5171,7.7295 L9.1051,2.5525 C9.2751,2.2135 9.6211,2.0005 10.0001,2.0005 C10.3791,2.0005 10.7251,2.2135 10.8941,2.5525 L13.4831,7.7295 L17.6281,6.0715 C17.7491,6.0235 17.8751,6.0005 18.0001,6.0005 C18.2501,6.0005 18.4971,6.0935 18.6861,6.2725 Z" id="path-1"></path>
    </defs>
    <g id="icons-small-/-premium-member" stroke="none" stroke-width="1" fill="none" fill-rule="evenodd">
        <mask id="mask-2" fill="white">
            <use xlink:href="#path-1"></use>
        </mask>
        <use id="Combined-Shape" fill="#000000" xlink:href="#path-1"></use>
        <g id="colours-/-dark" mask="url(#mask-2)" fill="#000000">
            <rect id="Rectangle-4" x="0" y="0" width="20" height="20"></rect>
        </g>
    </g>
</svg>