<svg width="12" height="10" viewBox="0 0 12 10" fill="none" xmlns="http://www.w3.org/2000/svg">
<path fill-rule="evenodd" clip-rule="evenodd" d="M2.5 2.00025H10.293L9.146 0.85425C8.951 0.65825 8.951 0.34225 9.146 0.14625C9.342 -0.04875 9.658 -0.04875 9.854 0.14625L11.853 2.14625C11.899 2.19225 11.936 2.24825 11.961 2.30925C12.012 2.43125 12.012 2.56925 11.961 2.69125C11.936 2.75225 11.899 2.80825 11.853 2.85425L9.854 4.85425C9.756 4.95125 9.628 5.00025 9.5 5.00025C9.372 5.00025 9.244 4.95125 9.146 4.85425C8.951 4.65825 8.951 4.34225 9.146 4.14625L10.293 3.00025H2.5C1.673 3.00025 1 3.67325 1 4.50025V7.50025C1 8.32725 1.673 9.00025 2.5 9.00025H9.5C9.776 9.00025 10 9.22425 10 9.50025C10 9.77625 9.776 10.0002 9.5 10.0002H2.5C1.122 10.0002 0 8.87925 0 7.50025V4.50025C0 3.12225 1.122 2.00025 2.5 2.00025Z" transform="translate(-9.91821e-05 -0.00025177)" fill="black"/>
</svg>
