<svg width="210" height="267" viewBox="0 0 210 267" fill="none" xmlns="http://www.w3.org/2000/svg">
<mask id="mask0" mask-type="alpha" maskUnits="userSpaceOnUse" x="-45" y="-33" width="300" height="300">
<path fill-rule="evenodd" clip-rule="evenodd" d="M0 0H300V300H0V0Z" transform="translate(-45 -33)" fill="white"/>
</mask>
<g mask="url(#mask0)">
<path fill-rule="evenodd" clip-rule="evenodd" d="M97.0022 249.644C178.842 249.644 180.225 259.091 189.822 237.755C193.59 229.379 194.79 222.692 191.976 213.08C189.033 203.051 176.574 190.235 178.605 180.068C180.513 170.498 183.843 162.452 182.628 152.075C182.595 151.823 182.562 151.571 182.52 151.328C182.52 151.244 182.502 151.16 182.49 151.085C181.26 139.58 175.389 129.581 174.276 117.848C172.785 101.966 176.574 86.3811 174.117 70.6341C170.988 50.4981 156.861 27.7461 141.987 14.2161C130.83 4.08809 108.381 -3.51691 95.6402 2.29409L95.6312 2.30609C95.5262 2.24009 95.4212 2.18009 95.3072 2.12609C83.3612 -4.11391 62.7842 4.42709 52.0052 14.2161C37.1312 27.7461 22.9952 50.4981 19.8632 70.6341C17.4182 86.3811 21.2072 101.966 19.7072 117.848C18.6032 129.551 12.7742 139.52 11.5142 150.968C11.4512 151.328 11.3972 151.697 11.3552 152.075C10.1492 162.452 13.4792 170.498 15.3902 180.068C17.4062 190.235 4.94723 203.051 2.00723 213.08C-0.80977 222.692 -1.14277 230.267 4.16123 237.767C17.6672 256.874 29.4062 249.644 97.0022 249.644Z" transform="translate(7.67828 0.333344)" fill="#4A5160"/>
<path fill-rule="evenodd" clip-rule="evenodd" d="M104.664 0C114.108 0.072 153.633 5.562 155.187 44.22C155.742 58.158 155.094 70.398 153.894 80.733L154.314 80.787C154.314 80.787 157.56 83.022 158.538 87.222C159.537 91.455 152.382 102.318 149.157 106.626C147.981 111.165 146.898 114.546 146.172 116.718C144.525 121.647 140.733 126.603 136.425 130.983L136.551 131.109C134.661 138.579 134.976 155.217 134.913 162.3C134.787 176.742 141.258 192.372 151.332 203.538C151.782 204.042 152.307 204.564 152.886 205.113H152.898C154.284 206.439 156.015 207.876 157.992 209.4C173.718 221.487 197.28 233.439 205.218 244.872C208.989 250.302 209.103 265.02 209.103 265.02H104.664H104.439H0C0 265.02 0.114 250.302 3.885 244.872C11.826 233.439 35.388 221.487 51.111 209.4C53.088 207.876 54.819 206.439 56.208 205.113H56.22C56.796 204.564 57.321 204.042 57.774 203.538C67.845 192.372 74.316 176.742 74.19 162.3C74.127 155.217 74.442 138.579 72.552 131.109L72.678 130.983C68.37 126.603 64.581 121.647 62.931 116.718C62.205 114.546 61.122 111.165 59.946 106.626C56.724 102.318 49.569 91.455 50.565 87.222C51.543 83.022 54.789 80.787 54.789 80.787L55.209 80.733C54.012 70.398 53.361 58.158 53.916 44.22C55.473 5.562 94.995 0.072 104.439 0H104.664Z" transform="translate(0.000610352 3.87213)" fill="#616878"/>
<path fill-rule="evenodd" clip-rule="evenodd" d="M149.046 50.529V52.074H74.562H74.496H0V50.529C5.559 35.949 2.829 22.638 0.738 10.089C6.072 6.768 11.463 3.279 16.107 0C19.611 3.207 36.789 16.914 74.496 16.914H74.562C112.269 16.914 129.444 3.207 132.942 0C137.598 3.279 142.974 6.768 148.311 10.089C146.22 22.638 143.499 35.949 149.046 50.529Z" transform="translate(30.1455 216.816)" fill="#4A5160"/>
<path fill-rule="evenodd" clip-rule="evenodd" d="M162.762 117.848C161.271 101.966 165.063 86.3815 162.603 70.6345C159.474 50.4985 145.347 27.7465 130.473 14.2165C119.316 4.08848 96.87 -3.51652 84.129 2.29148L84.117 2.30348C84.012 2.24048 83.907 2.17748 83.793 2.12648C71.847 -4.11352 51.27 4.42448 40.494 14.2165C25.62 27.7465 11.481 50.4985 8.349 70.6345C5.904 86.3815 9.696 101.966 8.193 117.848C7.089 129.548 1.26 139.52 0 150.968C1.575 141.083 8.13 138.08 13.602 130.295C19.746 121.556 21.9 110.624 27.099 101.735C28.539 99.2695 30.273 97.2835 32.184 95.5915C33.708 94.2475 35.346 93.0805 37.059 92.0005C41.922 88.9315 47.331 86.5675 52.098 82.6615C66.543 70.7995 62.763 32.6305 83.793 31.7155V31.6825C107.217 29.6755 104.496 70.8655 118.866 82.6615C123.624 86.5675 129.033 88.9195 133.896 92.0005C135.609 93.0685 137.247 94.2355 138.771 95.5915C140.682 97.2835 142.416 99.2695 143.853 101.735C149.055 110.624 151.218 121.556 157.353 130.295C162.846 138.113 169.422 141.104 170.976 151.085C169.746 139.58 163.875 129.581 162.762 117.848Z" transform="translate(19.1922 0.334167)" fill="#4A5160"/>
</g>
</svg>
