<?xml version="1.0" encoding="UTF-8"?>
<!DOCTYPE svg PUBLIC "-//W3C//DTD SVG 1.1//EN" "http://www.w3.org/Graphics/SVG/1.1/DTD/svg11.dtd">
<!-- Creator: CorelDRAW X7 -->
<svg xmlns="http://www.w3.org/2000/svg" xml:space="preserve" width="45px" height="45px" version="1.1" style="shape-rendering:geometricPrecision; text-rendering:geometricPrecision; image-rendering:optimizeQuality; fill-rule:evenodd; clip-rule:evenodd"
viewBox="0 0 45 45"
 xmlns:xlink="http://www.w3.org/1999/xlink">
 <defs>
  <style type="text/css">
   <![CDATA[
    .fil2 {fill:#4A5160}
    .fil0 {fill:#525866}
    .fil1 {fill:#616878}
   ]]>
  </style>
 </defs>
 <g id="Layer_x0020_1">
  <metadata id="CorelCorpID_0Corel-Layer"/>
  <g id="_2865278082656">
   <polygon class="fil0" points="0,0 45,0 45,45 0,45 "/>
   <path class="fil1" d="M42 45c0,-1 -1,-3 -2,-4 0,0 0,0 0,0 -1,-1 -2,-1 -3,-2 -1,0 -2,-1 -3,-1 -1,-1 -2,-2 -2,-2 0,0 0,0 0,0 -1,0 -1,-1 -1,-1 -2,-2 -3,-3 -3,-6 0,-1 0,-2 1,-4 0,0 1,-1 1,-1 0,0 0,-1 0,-2 0,0 2,-2 1,-3 0,0 0,-1 0,-1 0,-2 0,-4 0,-7 0,-6 -9,-6 -9,-6l0 0c0,0 -8,0 -8,6 0,3 0,5 0,7l0 0c0,0 0,1 0,1 -1,1 1,3 1,3 0,1 0,2 0,2 0,0 1,1 1,1 1,2 1,3 1,4 0,3 -1,4 -3,6 0,0 0,1 -1,1 0,0 0,0 0,0 0,0 -1,1 -2,2 -1,0 -2,1 -3,1 -1,1 -2,1 -3,2 0,0 -2,3 -2,4l0 0 0 0 19 0 0 0 20 0 0 0 0 0z"/>
   <path class="fil2" d="M31 19c0,0 0,0 0,-1 0,-2 0,-4 0,-7 0,-6 -9,-6 -9,-6l0 0c0,0 -8,0 -8,6 0,3 0,5 0,7 0,0 0,0 0,0 1,-1 1,-3 1,-4 1,-1 2,-1 3,-1 1,0 2,-1 3,-2 2,-1 3,-1 5,-2 1,-1 0,1 1,2 1,1 2,1 2,2 1,2 1,4 2,5l0 1zm9 22c0,0 0,0 0,0 -1,-1 -2,-1 -3,-2 -1,0 -2,-1 -3,-1 -1,-1 -2,-2 -2,-2 0,0 -4,1 -9,1l0 0 -1 0c0,0 -8,0 -8,-1 -1,0 -1,0 -1,0 0,0 -1,1 -2,2 -1,0 -2,1 -3,1 -1,1 -2,1 -3,2 0,0 -2,3 -2,4l3 0 16 0 1 0 0 0 16 0 3 0c0,-1 -1,-3 -2,-4z"/>
  </g>
 </g>
</svg>
