<svg width="259" height="266" viewBox="0 0 259 266" fill="none" xmlns="http://www.w3.org/2000/svg">
<mask id="mask0" mask-type="alpha" maskUnits="userSpaceOnUse" x="-22" y="-34" width="300" height="300">
<path fill-rule="evenodd" clip-rule="evenodd" d="M0 0H300V300H0V0Z" transform="translate(-22 -34)" fill="white"/>
</mask>
<g mask="url(#mask0)">
<path fill-rule="evenodd" clip-rule="evenodd" d="M257.789 265.28C257.789 261.531 249.627 243.014 245.793 237.352C245.39 236.773 245.048 236.318 244.753 236.042C239.992 231.483 233.134 228.74 227.311 225.889C220.675 222.636 214.455 220.079 208.216 216.234C201.834 212.299 195.465 208.371 189.496 203.833C189.493 203.842 189.41 203.883 189.369 203.904C187.255 202.316 185.469 200.855 184.177 199.592C172.705 188.423 167.992 175.924 168.294 161.449C168.468 153.49 168.325 142.386 170.471 134.904C173.314 131.069 175.596 127.336 176.751 124.302C177.43 122.51 178.242 119.312 179.096 115.009C182.143 110.815 189.791 98.6678 188.21 94.3742C186.687 90.2664 182.809 88.3038 182.809 88.3038C184.186 73.925 184.954 56.7818 184.177 39.4683C182.387 0.498384 128.885 0 128.885 0H128.831C128.831 0 75.3102 0.498384 73.5426 39.4683C72.7524 56.7818 73.5203 73.9157 74.9103 88.3038H74.8976C74.8976 88.3038 71.0196 90.2664 69.4964 94.3742C67.9064 98.6678 75.5672 110.815 78.6106 115.009C79.4548 119.312 80.2767 122.51 80.9558 124.302C82.1142 127.336 84.3896 131.069 87.2362 134.904C89.3942 142.386 89.2387 153.49 89.4164 161.449C89.7274 175.924 85.002 188.423 73.5426 199.592C72.2509 200.858 70.4516 202.326 68.3349 203.914C68.3222 203.889 68.2999 203.858 68.2872 203.833C62.3211 208.371 55.9487 212.299 49.57 216.234C43.3277 220.079 37.1077 222.636 30.4782 225.889C24.6517 228.74 17.797 231.483 13.0335 236.042C9.93621 239.02 0 261.147 0 265.28H2.11355L2.07864 265.363H128.831H128.885H255.628L255.593 265.28H257.789Z" transform="translate(0.707581 0.963623)" fill="#616878"/>
<path fill-rule="evenodd" clip-rule="evenodd" d="M245.797 33.5187C245.394 32.9398 245.051 32.4848 244.756 32.2093C239.992 27.6495 233.138 24.9068 227.311 22.0558C220.675 18.8024 214.458 16.2455 208.219 12.4008C201.837 8.46635 195.468 4.53809 189.499 0C189.337 0.287887 168.871 8.97711 133.687 10.949H129.307H128.479C125.467 10.949 73.2665 7.79152 68.9061 0.996769C68.6649 0.622207 68.4523 0.287887 68.2904 0C62.3242 4.53809 55.9519 8.46635 49.57 12.4008C43.3309 16.2455 37.1108 18.8024 30.4782 22.0558C24.6549 24.9068 17.8001 27.6495 13.0335 32.2093C9.93938 35.1872 0 57.3142 0 61.4468H18.1905H128.479H129.307H133.687H239.599H257.792C257.792 57.6981 249.63 39.1805 245.797 33.5187Z" transform="translate(0.705017 204.797)" fill="#4A5160"/>
<path fill-rule="evenodd" clip-rule="evenodd" d="M109.46 89.5018C109.499 89.1025 109.537 88.7032 109.578 88.3008C110.962 73.9095 111.73 56.7849 110.939 39.4622C109.172 0.495288 55.6539 0 55.6539 0H55.6031C55.6031 0 2.0948 0.495288 0.314473 39.4622C-0.472553 56.7849 0.304953 73.9188 1.67908 88.3008C1.67908 88.3008 1.54896 88.1274 1.54896 88.1243C5.96647 78.2154 7.48022 68.5635 8.77818 58.0881C12.8529 55.234 18.7874 53.9586 23.554 52.5378C32.5699 49.8508 41.005 46.3683 48.3326 40.4837C56.6376 33.8128 66.6754 31.1227 76.3641 26.3308C85.9227 21.607 81.5623 29.578 85.948 36.0292C90.2957 42.4246 97.9629 46.2198 101.66 53.1383C106.554 62.2919 108.696 78.0204 109.368 88.1274L109.46 89.5018Z" transform="translate(73.9277 0.966125)" fill="#4A5160"/>
</g>
</svg>
