<svg width="18" height="16" viewBox="0 0 18 16" fill="none" xmlns="http://www.w3.org/2000/svg">
<path fill-rule="evenodd" clip-rule="evenodd" d="M1.29297 15.7072C1.48828 15.9023 1.74414 16.0002 2 16.0002C2.25586 16.0002 2.5127 15.9023 2.70703 15.7072L16.707 1.70721C17.0986 1.3161 17.0986 0.684265 16.707 0.293152C16.3164 -0.0977173 15.6846 -0.0977173 15.293 0.293152L1.29297 14.2932C0.902344 14.6843 0.902344 15.3161 1.29297 15.7072ZM1.85059 10.9074L10.6201 2.13837C10.1064 2.05731 9.5752 2.00043 9 2.00043C2.71582 2.00043 0.194336 7.35638 0.0908203 7.58441C-0.0302734 7.84833 -0.0302734 8.15131 0.0908203 8.41644C0.137695 8.51849 0.686523 9.67548 1.85059 10.9074ZM16.1494 5.09296L7.38086 13.862C7.89355 13.9431 8.42578 13.9999 9.00098 13.9999C15.2852 13.9999 17.8057 8.64398 17.9102 8.41595C18.0312 8.15204 18.0312 7.84906 17.9102 7.58392C17.8633 7.4809 17.3135 6.32489 16.1494 5.09296Z" transform="translate(0 -0.000244141)" fill="#525866"/>
</svg>
