<svg width="20" height="20" viewBox="0 0 20 20" fill="none" xmlns="http://www.w3.org/2000/svg">
<path fill-rule="evenodd" clip-rule="evenodd" d="M6.0002 5.99906C5.8802 5.99906 5.7592 5.95606 5.6642 5.86906L0.1642 0.869056C-0.0407996 0.683056 -0.0557996 0.367056 0.1302 0.163056C0.3152 -0.0409435 0.6332 -0.0549435 0.8362 0.129056L6.0002 4.82306L11.1642 0.129056C11.3682 -0.0549435 11.6842 -0.0409435 11.8702 0.163056C12.0562 0.367056 12.0412 0.683056 11.8362 0.869056L6.3362 5.86906C6.2412 5.95606 6.1202 5.99906 6.0002 5.99906" transform="translate(3.99988 7.00015)" fill="black"/>
<mask id="mask0" mask-type="alpha" maskUnits="userSpaceOnUse" x="3" y="7" width="14" height="6">
<path fill-rule="evenodd" clip-rule="evenodd" d="M6.0002 5.99906C5.8802 5.99906 5.7592 5.95606 5.6642 5.86906L0.1642 0.869056C-0.0407996 0.683056 -0.0557996 0.367056 0.1302 0.163056C0.3152 -0.0409435 0.6332 -0.0549435 0.8362 0.129056L6.0002 4.82306L11.1642 0.129056C11.3682 -0.0549435 11.6842 -0.0409435 11.8702 0.163056C12.0562 0.367056 12.0412 0.683056 11.8362 0.869056L6.3362 5.86906C6.2412 5.95606 6.1202 5.99906 6.0002 5.99906" transform="translate(3.99988 7.00015)" fill="white"/>
</mask>
<g mask="url(#mask0)">
<path fill-rule="evenodd" clip-rule="evenodd" d="M0 0H20V20H0V0Z" fill="white"/>
</g>
</svg>
