<svg width="18" height="12" viewBox="0 0 18 12" fill="none" xmlns="http://www.w3.org/2000/svg">
<path fill-rule="evenodd" clip-rule="evenodd" d="M9 9C7.343 9 6 7.657 6 6C6 4.343 7.343 3 9 3C10.657 3 12 4.343 12 6C12 7.657 10.657 9 9 9ZM17.9293 5.629C17.8363 5.398 15.6012 0 9.00025 0C2.39925 0 0.16425 5.398 0.07125 5.629C-0.02375 5.867 -0.02375 6.133 0.07125 6.371C0.16425 6.602 2.39925 12 9.00025 12C15.6012 12 17.8363 6.602 17.9293 6.371C18.0243 6.133 18.0243 5.867 17.9293 5.629Z" fill="#FF5533"/>
</svg>
