<svg width="204" height="30" viewBox="0 0 204 30" fill="none" xmlns="http://www.w3.org/2000/svg">
<path d="M39.0356 12.0673C39.0356 11.5533 39.4925 11.2677 40.235 11.2677C40.7775 11.2677 41.2058 11.4105 41.52 11.7246C42.1767 12.3814 42.291 12.4099 43.0048 12.0387C43.5759 11.7246 44.4897 11.2106 45.0037 10.9536C45.8318 10.5253 45.3464 9.92561 45.1179 9.66861C43.89 8.24085 42.1482 7.52696 40.235 7.52696C37.2938 7.52696 34.6667 9.09751 34.6667 12.1815C34.6667 17.093 41.6627 16.2649 41.6627 17.8354C41.6627 18.4065 41.1487 18.7206 40.1207 18.7206C39.3212 18.7206 38.6644 18.4922 38.0933 17.8354C37.8649 17.5784 37.6079 17.1215 36.8654 17.5499C36.0659 18.0068 35.3806 18.378 34.7238 18.7492C34.2098 19.0348 34.1812 19.5202 34.4382 19.92C35.609 21.6904 37.8363 22.5471 40.1207 22.5471C43.1762 22.5471 46.0317 21.1478 46.0317 17.8925C46.0317 12.6098 39.0356 13.6949 39.0356 12.0673Z" fill="white"/>
<path d="M72.9594 7.52696C68.7903 7.52696 65.4208 10.7823 65.4208 15.037C65.4208 19.2918 68.7617 22.5471 72.9594 22.5471C77.1284 22.5471 80.498 19.2918 80.498 15.037C80.498 10.7823 77.1284 7.52696 72.9594 7.52696ZM72.9594 18.378C71.1033 18.378 69.704 17.0359 69.704 15.037C69.704 13.0096 71.1318 11.696 72.9594 11.696C74.8154 11.696 76.2147 13.0381 76.2147 15.037C76.2147 17.0359 74.7869 18.378 72.9594 18.378Z" fill="white"/>
<path d="M184.382 7.52696C179.899 7.52696 176.815 10.7823 176.815 15.037C176.815 19.2918 179.813 22.5471 184.668 22.5471C186.295 22.5471 188.665 22.1473 190.265 20.3483C190.579 20.0056 190.579 19.4345 190.065 19.1204C189.408 18.7492 189.037 18.5493 188.237 18.0924C187.523 17.6927 187.066 18.0353 186.724 18.2352C186.21 18.5493 185.553 18.7206 184.753 18.7206C183.183 18.7206 181.898 18.2067 181.355 16.7218C181.355 16.7218 188.78 16.7218 190.122 16.7218C191.492 16.7218 191.607 15.6081 191.607 15.0085C191.607 10.7252 188.523 7.52696 184.382 7.52696ZM181.27 13.5521C181.669 12.0958 182.755 11.2963 184.354 11.2963C185.639 11.2963 186.895 11.8959 187.352 13.5521H181.27Z" fill="white"/>
<path d="M56.7685 7.52696C54.8553 7.52696 53.4846 8.18373 52.5423 9.26884V8.44073C52.5423 8.15518 52.3139 7.92674 52.0283 7.92674H48.8016C48.516 7.92674 48.2876 8.15518 48.2876 8.44073V25.5454C48.2876 25.8309 48.516 26.0594 48.8016 26.0594H52.0283C52.3139 26.0594 52.5423 25.8309 52.5423 25.5454V20.8052C53.4846 21.8903 54.8838 22.5471 56.7685 22.5471C60.4807 22.5471 63.5647 19.2918 63.5647 15.037C63.5647 10.7823 60.5092 7.52696 56.7685 7.52696ZM55.9404 18.4922C53.9701 18.4922 52.5709 17.1501 52.5709 15.037C52.5709 12.8954 53.9986 11.5818 55.9404 11.5818C57.9107 11.5818 59.3099 12.9239 59.3099 15.037C59.3099 17.1501 57.8821 18.4922 55.9404 18.4922Z" fill="white"/>
<path d="M100.944 7.92674H98.4878V5.98498C98.4878 5.69942 98.2594 5.47098 97.9738 5.47098H94.7471C94.4615 5.47098 94.2331 5.69942 94.2331 5.98498V17.0073C94.2331 20.9765 95.8607 22.6613 101.4 22.0902V18.2352C99.5158 18.3494 98.4878 18.2352 98.4878 17.0073V11.7817H100.944C101.201 11.7817 101.4 11.5818 101.4 11.3248V8.38362C101.429 8.12662 101.201 7.92674 100.944 7.92674Z" fill="white"/>
<path d="M157.426 7.92674H154.97V5.98498C154.97 5.69942 154.742 5.47098 154.456 5.47098H151.229C150.944 5.47098 150.715 5.69942 150.715 5.98498V17.0073C150.715 20.9765 152.343 22.6613 157.883 22.0902V18.2352C155.998 18.3494 154.97 18.2352 154.97 17.0073V11.7817H157.426C157.683 11.7817 157.883 11.5818 157.883 11.3248V8.38362C157.883 8.12662 157.683 7.92674 157.426 7.92674Z" fill="white"/>
<path d="M91.9772 7.86963C90.1782 7.86963 88.4078 8.49784 87.237 9.64006V8.44073C87.237 8.15518 87.0086 7.92674 86.723 7.92674H83.4963C83.2107 7.92674 82.9823 8.15518 82.9823 8.44073V21.6047C82.9823 21.8903 83.2107 22.1187 83.4963 22.1187H86.723C87.0086 22.1187 87.237 21.8903 87.237 21.6047V15.3511C87.237 12.5527 90.2353 11.9245 91.9772 11.9245C92.2342 11.9245 92.4341 11.7246 92.4341 11.4676V8.32651C92.4341 8.06951 92.2342 7.86963 91.9772 7.86963Z" fill="white"/>
<path d="M148.345 7.86963C146.546 7.86963 144.776 8.49784 143.605 9.64006V8.44073C143.605 8.15518 143.377 7.92674 143.091 7.92674H139.864C139.579 7.92674 139.35 8.15518 139.35 8.44073V21.6047C139.35 21.8903 139.579 22.1187 139.864 22.1187H143.091C143.377 22.1187 143.605 21.8903 143.605 21.6047V15.3511C143.605 12.5527 146.604 11.9245 148.345 11.9245C148.602 11.9245 148.802 11.7246 148.802 11.4676V8.32651C148.802 8.06951 148.574 7.86963 148.345 7.86963Z" fill="white"/>
<path d="M203 7.86963C201.201 7.86963 199.431 8.49784 198.26 9.64006V8.44073C198.26 8.15518 198.032 7.92674 197.746 7.92674H194.519C194.234 7.92674 194.005 8.15518 194.005 8.44073V21.6047C194.005 21.8903 194.234 22.1187 194.519 22.1187H197.746C198.032 22.1187 198.26 21.8903 198.26 21.6047V15.3511C198.26 12.5527 201.258 11.9245 203 11.9245C203.257 11.9245 203.457 11.7246 203.457 11.4676V8.32651C203.457 8.06951 203.257 7.86963 203 7.86963Z" fill="white"/>
<path d="M112.451 7.52696C110.538 7.52696 109.167 8.18373 108.225 9.26884V8.44073C108.225 8.15518 107.997 7.92674 107.711 7.92674H104.484C104.199 7.92674 103.97 8.15518 103.97 8.44073V25.5454C103.97 25.8309 104.199 26.0594 104.484 26.0594H107.711C107.997 26.0594 108.225 25.8309 108.225 25.5454V20.8052C109.167 21.8903 110.567 22.5471 112.451 22.5471C116.164 22.5471 119.248 19.2918 119.248 15.037C119.248 10.7823 116.164 7.52696 112.451 7.52696ZM111.595 18.4922C109.624 18.4922 108.225 17.1501 108.225 15.037C108.225 12.8954 109.653 11.5818 111.595 11.5818C113.565 11.5818 114.964 12.9239 114.964 15.037C114.993 17.1501 113.565 18.4922 111.595 18.4922Z" fill="white"/>
<path d="M135.724 7.92674H132.497C132.212 7.92674 131.983 8.15518 131.983 8.44073V9.26884C131.041 8.18373 129.642 7.52696 127.757 7.52696C124.045 7.52696 120.961 10.7823 120.961 15.037C120.961 19.2918 124.016 22.5471 127.757 22.5471C129.67 22.5471 131.041 21.8903 131.983 20.8052V21.6333C131.983 21.9188 132.212 22.1473 132.497 22.1473H135.724C136.009 22.1473 136.238 21.9188 136.238 21.6333V8.46929C136.238 8.15518 135.981 7.92674 135.724 7.92674ZM128.585 18.4922C126.615 18.4922 125.216 17.1501 125.216 15.037C125.216 12.8954 126.643 11.5818 128.585 11.5818C130.555 11.5818 131.955 12.9239 131.955 15.037C131.955 17.1501 130.555 18.4922 128.585 18.4922Z" fill="white"/>
<path d="M169.305 7.52696C167.42 7.52696 166.021 8.21229 165.25 9.26884V8.44073C165.25 8.15518 165.022 7.92674 164.736 7.92674H161.509C161.224 7.92674 160.995 8.15518 160.995 8.44073V21.6047C160.995 21.8903 161.224 22.1187 161.509 22.1187H164.736C165.022 22.1187 165.25 21.8903 165.25 21.6047V14.3802C165.25 12.3528 166.335 11.4676 167.877 11.4676C169.248 11.4676 170.362 12.2957 170.362 14.0376V21.6333C170.362 21.9188 170.59 22.1473 170.876 22.1473H174.102C174.388 22.1473 174.616 21.9188 174.616 21.6333V13.4094C174.616 9.55439 172.189 7.52696 169.305 7.52696Z" fill="white"/>
<path d="M10.7088 17.1501C7.28214 17.1501 4.51228 14.4945 4.28383 11.1249C4.05539 7.41274 7.0537 4.30022 10.7088 4.30022V0.016919C4.68361 0.016919 -0.170796 5.07121 0.0290916 11.0964C0.228979 16.836 4.94061 21.4334 10.7373 21.4334C11.9081 21.4334 12.879 20.4625 12.879 19.2918C12.8504 18.0924 11.8795 17.1501 10.7088 17.1501Z" fill="white"/>
<path d="M10.7088 8.58351C9.53801 8.58351 8.56713 9.55439 8.56713 10.7252C8.56713 11.8959 9.53801 12.8668 10.7088 12.8668C14.2496 12.8668 17.1337 15.7509 17.1337 19.2918C17.1337 22.8326 14.2496 25.7167 10.7088 25.7167V30C16.6197 30 21.417 25.2027 21.417 19.2918C21.417 13.3808 16.6197 8.58351 10.7088 8.58351Z" fill="white"/>
<path d="M7.51058 5.15688C10.3376 3.52922 13.907 4.30022 15.8202 6.81308C16.1057 7.1843 16.6197 7.29852 17.0195 7.07008L19.1326 5.8422C19.618 5.55665 19.7323 4.95699 19.4181 4.5001C16.2771 0.0454744 10.1948 -1.35374 5.36894 1.44468C0.543089 4.24311 -1.31301 10.2112 0.971418 15.1512C1.19986 15.6367 1.79952 15.8366 2.28496 15.5796L4.39806 14.3517C4.79783 14.1232 4.96916 13.6092 4.76927 13.1809C3.5414 10.2683 4.68361 6.78453 7.51058 5.15688Z" fill="white"/>
<path d="M13.907 24.8315C16.7339 23.2038 17.8476 19.7201 16.6197 16.7789C16.4484 16.3506 16.5912 15.8366 16.9909 15.6081L19.104 14.3802C19.5895 14.0947 20.1891 14.2946 20.4176 14.8086C22.702 19.7772 20.8459 25.7453 16.0201 28.5437C11.1942 31.3421 5.11194 29.9429 1.9423 25.4883C1.62819 25.0314 1.77097 24.4317 2.22785 24.1462L4.34094 22.9183C4.74072 22.6898 5.25471 22.8041 5.54027 23.1753C7.51058 25.7167 11.08 26.4591 13.907 24.8315Z" fill="white"/>
<path d="M10.7088 8.58351C9.53801 8.58351 8.56713 9.55439 8.56713 10.7252C8.56713 11.8959 9.53801 12.8668 10.7088 12.8668C14.2496 12.8668 17.1337 15.7509 17.1337 19.2918C17.1337 22.8326 14.2496 25.7167 10.7088 25.7167V30C16.6197 30 21.417 25.2027 21.417 19.2918C21.417 13.3808 16.6197 8.58351 10.7088 8.58351Z" fill="white"/>
</svg>
