<svg width="272" height="40" viewBox="0 0 272 40" fill="none" xmlns="http://www.w3.org/2000/svg">
<path d="M52.0475 16.0897C52.0475 15.4044 52.6567 15.0236 53.6466 15.0236C54.37 15.0236 54.9411 15.214 55.3599 15.6328C56.2356 16.5085 56.3879 16.5466 57.3398 16.0516C58.1013 15.6328 59.3196 14.9475 60.0049 14.6048C61.1091 14.0337 60.4618 13.2341 60.1572 12.8915C58.5201 10.9878 56.1976 10.036 53.6466 10.036C49.725 10.036 46.2222 12.13 46.2222 16.242C46.2222 22.7907 55.5503 21.6865 55.5503 23.7806C55.5503 24.542 54.865 24.9609 53.4943 24.9609C52.4283 24.9609 51.5526 24.6563 50.7911 23.7806C50.4865 23.4379 50.1438 22.8287 49.1539 23.3998C48.0879 24.009 47.1741 24.504 46.2984 24.9989C45.6131 25.3797 45.575 26.0269 45.9177 26.56C47.4787 28.9205 50.4484 30.0627 53.4943 30.0627C57.5682 30.0627 61.3756 28.1971 61.3756 23.8567C61.3756 16.8131 52.0475 18.2599 52.0475 16.0897Z" fill="#30C996"/>
<path d="M97.2791 10.036C91.7204 10.036 87.2277 14.3764 87.2277 20.0493C87.2277 25.7223 91.6823 30.0627 97.2791 30.0627C102.838 30.0627 107.331 25.7223 107.331 20.0493C107.331 14.3764 102.838 10.036 97.2791 10.036ZM97.2791 24.504C94.8043 24.504 92.9387 22.7145 92.9387 20.0493C92.9387 17.3461 94.8424 15.5947 97.2791 15.5947C99.7539 15.5947 101.62 17.3842 101.62 20.0493C101.62 22.7145 99.7159 24.504 97.2791 24.504Z" fill="#30C996"/>
<path d="M245.843 10.036C239.865 10.036 235.753 14.3764 235.753 20.0493C235.753 25.7223 239.751 30.0627 246.224 30.0627C248.394 30.0627 251.554 29.5297 253.686 27.1311C254.105 26.6742 254.105 25.9127 253.42 25.4939C252.544 24.9989 252.049 24.7324 250.983 24.1232C250.031 23.5902 249.422 24.0471 248.965 24.3136C248.28 24.7324 247.404 24.9609 246.338 24.9609C244.244 24.9609 242.53 24.2755 241.807 22.2957C241.807 22.2957 251.706 22.2957 253.496 22.2957C255.323 22.2957 255.476 20.8108 255.476 20.0113C255.476 14.3002 251.364 10.036 245.843 10.036ZM241.693 18.0695C242.226 16.1278 243.673 15.0617 245.805 15.0617C247.518 15.0617 249.193 15.8612 249.803 18.0695H241.693Z" fill="#30C996"/>
<path d="M75.6913 10.036C73.1404 10.036 71.3128 10.9116 70.0564 12.3584V11.2543C70.0564 10.8736 69.7518 10.569 69.3711 10.569H65.0687C64.688 10.569 64.3834 10.8736 64.3834 11.2543V34.0605C64.3834 34.4412 64.688 34.7458 65.0687 34.7458H69.3711C69.7518 34.7458 70.0564 34.4412 70.0564 34.0605V27.7402C71.3128 29.187 73.1785 30.0627 75.6913 30.0627C80.6409 30.0627 84.7529 25.7223 84.7529 20.0493C84.7529 14.3764 80.679 10.036 75.6913 10.036ZM74.5872 24.6563C71.9601 24.6563 70.0945 22.8668 70.0945 20.0493C70.0945 17.1938 71.9982 15.4424 74.5872 15.4424C77.2143 15.4424 79.0799 17.2319 79.0799 20.0493C79.0799 22.8668 77.1762 24.6563 74.5872 24.6563Z" fill="#30C996"/>
<path d="M134.591 10.569H131.317V7.97997C131.317 7.59923 131.012 7.29464 130.632 7.29464H126.329C125.949 7.29464 125.644 7.59923 125.644 7.97997V22.6764C125.644 27.9687 127.814 30.215 135.201 29.4536V24.3136C132.688 24.4659 131.317 24.3136 131.317 22.6764V15.7089H134.591C134.934 15.7089 135.201 15.4424 135.201 15.0998V11.1782C135.239 10.8355 134.934 10.569 134.591 10.569Z" fill="#30C996"/>
<path d="M209.901 10.569H206.627V7.97997C206.627 7.59923 206.322 7.29464 205.942 7.29464H201.639C201.259 7.29464 200.954 7.59923 200.954 7.97997V22.6764C200.954 27.9687 203.124 30.215 210.51 29.4536V24.3136C207.998 24.4659 206.627 24.3136 206.627 22.6764V15.7089H209.901C210.244 15.7089 210.51 15.4424 210.51 15.0998V11.1782C210.51 10.8355 210.244 10.569 209.901 10.569Z" fill="#30C996"/>
<path d="M122.636 10.4928C120.238 10.4928 117.877 11.3305 116.316 12.8534V11.2543C116.316 10.8736 116.011 10.569 115.631 10.569H111.328C110.948 10.569 110.643 10.8736 110.643 11.2543V28.8063C110.643 29.187 110.948 29.4916 111.328 29.4916H115.631C116.011 29.4916 116.316 29.187 116.316 28.8063V20.4682C116.316 16.7369 120.314 15.8993 122.636 15.8993C122.979 15.8993 123.245 15.6328 123.245 15.2901V11.102C123.245 10.7594 122.979 10.4928 122.636 10.4928Z" fill="#30C996"/>
<path d="M197.794 10.4928C195.395 10.4928 193.035 11.3305 191.474 12.8534V11.2543C191.474 10.8736 191.169 10.569 190.788 10.569H186.486C186.105 10.569 185.801 10.8736 185.801 11.2543V28.8063C185.801 29.187 186.105 29.4916 186.486 29.4916H190.788C191.169 29.4916 191.474 29.187 191.474 28.8063V20.4682C191.474 16.7369 195.471 15.8993 197.794 15.8993C198.137 15.8993 198.403 15.6328 198.403 15.2901V11.102C198.403 10.7594 198.098 10.4928 197.794 10.4928Z" fill="#30C996"/>
<path d="M270.667 10.4928C268.268 10.4928 265.908 11.3305 264.347 12.8534V11.2543C264.347 10.8736 264.042 10.569 263.661 10.569H259.359C258.978 10.569 258.674 10.8736 258.674 11.2543V28.8063C258.674 29.187 258.978 29.4916 259.359 29.4916H263.661C264.042 29.4916 264.347 29.187 264.347 28.8063V20.4682C264.347 16.7369 268.345 15.8993 270.667 15.8993C271.01 15.8993 271.276 15.6328 271.276 15.2901V11.102C271.276 10.7594 271.01 10.4928 270.667 10.4928Z" fill="#30C996"/>
<path d="M149.935 10.036C147.384 10.036 145.557 10.9116 144.3 12.3584V11.2543C144.3 10.8736 143.996 10.569 143.615 10.569H139.313C138.932 10.569 138.627 10.8736 138.627 11.2543V34.0605C138.627 34.4412 138.932 34.7458 139.313 34.7458H143.615C143.996 34.7458 144.3 34.4412 144.3 34.0605V27.7402C145.557 29.187 147.422 30.0627 149.935 30.0627C154.885 30.0627 158.997 25.7223 158.997 20.0493C158.997 14.3764 154.885 10.036 149.935 10.036ZM148.793 24.6563C146.166 24.6563 144.3 22.8668 144.3 20.0493C144.3 17.1938 146.204 15.4424 148.793 15.4424C151.42 15.4424 153.286 17.2319 153.286 20.0493C153.324 22.8668 151.42 24.6563 148.793 24.6563Z" fill="#30C996"/>
<path d="M180.965 10.569H176.663C176.282 10.569 175.978 10.8736 175.978 11.2543V12.3584C174.721 10.9116 172.856 10.036 170.343 10.036C165.393 10.036 161.281 14.3764 161.281 20.0493C161.281 25.7223 165.355 30.0627 170.343 30.0627C172.894 30.0627 174.721 29.187 175.978 27.7402V28.8444C175.978 29.2251 176.282 29.5297 176.663 29.5297H180.965C181.346 29.5297 181.651 29.2251 181.651 28.8444V11.2924C181.651 10.8736 181.308 10.569 180.965 10.569ZM171.447 24.6563C168.82 24.6563 166.954 22.8668 166.954 20.0493C166.954 17.1938 168.858 15.4424 171.447 15.4424C174.074 15.4424 175.94 17.2319 175.94 20.0493C175.94 22.8668 174.074 24.6563 171.447 24.6563Z" fill="#30C996"/>
<path d="M225.74 10.036C223.227 10.036 221.361 10.9497 220.334 12.3584V11.2543C220.334 10.8736 220.029 10.569 219.648 10.569H215.346C214.965 10.569 214.661 10.8736 214.661 11.2543V28.8063C214.661 29.187 214.965 29.4916 215.346 29.4916H219.648C220.029 29.4916 220.334 29.187 220.334 28.8063V19.1737C220.334 16.4704 221.78 15.2901 223.836 15.2901C225.664 15.2901 227.149 16.3943 227.149 18.7168V28.8444C227.149 29.2251 227.453 29.5297 227.834 29.5297H232.136C232.517 29.5297 232.822 29.2251 232.822 28.8444V17.8791C232.822 12.7392 229.585 10.036 225.74 10.036Z" fill="#30C996"/>
<path d="M14.2784 22.8668C9.70952 22.8668 6.01637 19.326 5.71178 14.8332C5.40719 9.88366 9.40493 5.73362 14.2784 5.73362V0.0225587C6.24481 0.0225587 -0.227727 6.76161 0.0387888 14.7952C0.305305 22.448 6.58747 28.5779 14.3164 28.5779C15.8775 28.5779 17.172 27.2834 17.172 25.7223C17.1339 24.1232 15.8394 22.8668 14.2784 22.8668Z" fill="#30C996"/>
<path d="M14.2784 11.4447C12.7173 11.4447 11.4228 12.7392 11.4228 14.3002C11.4228 15.8612 12.7173 17.1557 14.2784 17.1557C18.9995 17.1557 22.845 21.0012 22.845 25.7223C22.845 30.4435 18.9995 34.2889 14.2784 34.2889V40C22.1596 40 28.556 33.6036 28.556 25.7223C28.556 17.8411 22.1596 11.4447 14.2784 11.4447Z" fill="#30C996"/>
<path d="M10.0141 6.87583C13.7834 4.70563 18.5426 5.73362 21.0936 9.08411C21.4743 9.57907 22.1596 9.73137 22.6927 9.42678L25.5101 7.7896C26.1574 7.40887 26.3097 6.60932 25.8909 6.00014C21.7028 0.0606325 13.593 -1.80498 7.15858 1.92625C0.724119 5.65747 -1.75068 13.6149 1.29522 20.2016C1.59981 20.8489 2.39936 21.1154 3.04662 20.7728L5.86407 19.1356C6.39711 18.831 6.62555 18.1457 6.35903 17.5746C4.72186 13.691 6.24481 9.04604 10.0141 6.87583Z" fill="#30C996"/>
<path d="M18.5426 33.1087C22.3119 30.9384 23.7968 26.2934 22.1596 22.3719C21.9312 21.8007 22.1216 21.1154 22.6546 20.8108L25.4721 19.1737C26.1193 18.7929 26.9189 19.0594 27.2234 19.7448C30.2693 26.3696 27.7946 34.327 21.3601 38.0582C14.9256 41.7895 6.81592 39.9239 2.58973 33.9843C2.17092 33.3752 2.36129 32.5756 2.97047 32.1949L5.78793 30.5577C6.32096 30.2531 7.00629 30.4054 7.38702 30.9004C10.0141 34.2889 14.7733 35.2789 18.5426 33.1087Z" fill="#30C996"/>
<path d="M14.2784 11.4447C12.7173 11.4447 11.4228 12.7392 11.4228 14.3002C11.4228 15.8612 12.7173 17.1557 14.2784 17.1557C18.9995 17.1557 22.845 21.0012 22.845 25.7223C22.845 30.4435 18.9995 34.2889 14.2784 34.2889V40C22.1596 40 28.556 33.6036 28.556 25.7223C28.556 17.8411 22.1596 11.4447 14.2784 11.4447Z" fill="#30C996"/>
</svg>
