<?xml version="1.0" encoding="utf-8"?>
<!-- Generator: Adobe Illustrator 23.1.0, SVG Export Plug-In . SVG Version: 6.00 Build 0)  -->
<svg version="1.1" id="Layer_1" xmlns="http://www.w3.org/2000/svg" xmlns:xlink="http://www.w3.org/1999/xlink" x="0px" y="0px"
	 viewBox="0 0 272 40" style="enable-background:new 0 0 272 40;" xml:space="preserve">
<style type="text/css">
	.st0{fill:#262F40;}
</style>
<path class="st0" d="M52,16.1c0-0.7,0.6-1.1,1.6-1.1c0.7,0,1.3,0.2,1.7,0.6c0.9,0.9,1,0.9,2,0.4c0.8-0.4,2-1.1,2.7-1.4
	c1.1-0.6,0.5-1.4,0.2-1.7c-1.6-1.9-4-2.9-6.5-2.9c-3.9,0-7.4,2.1-7.4,6.2c0,6.5,9.3,5.4,9.3,7.5c0,0.8-0.7,1.2-2.1,1.2
	c-1.1,0-1.9-0.3-2.7-1.2c-0.3-0.3-0.6-1-1.6-0.4c-1.1,0.6-2,1.1-2.9,1.6c-0.7,0.4-0.7,1-0.4,1.6c1.6,2.4,4.5,3.5,7.6,3.5
	c4.1,0,7.9-1.9,7.9-6.2C61.4,16.8,52,18.3,52,16.1z"/>
<path class="st0" d="M97.3,10c-5.6,0-10.1,4.3-10.1,10c0,5.7,4.5,10,10.1,10c5.6,0,10.1-4.3,10.1-10C107.3,14.4,102.8,10,97.3,10z
	 M97.3,24.5c-2.5,0-4.3-1.8-4.3-4.5c0-2.7,1.9-4.5,4.3-4.5c2.5,0,4.3,1.8,4.3,4.5C101.6,22.7,99.7,24.5,97.3,24.5z"/>
<path class="st0" d="M245.8,10c-6,0-10.1,4.3-10.1,10c0,5.7,4,10,10.5,10c2.2,0,5.3-0.5,7.5-2.9c0.4-0.5,0.4-1.2-0.3-1.6
	c-0.9-0.5-1.4-0.8-2.4-1.4c-1-0.5-1.6-0.1-2,0.2c-0.7,0.4-1.6,0.6-2.6,0.6c-2.1,0-3.8-0.7-4.5-2.7c0,0,9.9,0,11.7,0
	c1.8,0,2-1.5,2-2.3C255.5,14.3,251.4,10,245.8,10z M241.7,18.1c0.5-1.9,2-3,4.1-3c1.7,0,3.4,0.8,4,3H241.7z"/>
<path class="st0" d="M75.7,10c-2.6,0-4.4,0.9-5.6,2.3v-1.1c0-0.4-0.3-0.7-0.7-0.7h-4.3c-0.4,0-0.7,0.3-0.7,0.7v22.8
	c0,0.4,0.3,0.7,0.7,0.7h4.3c0.4,0,0.7-0.3,0.7-0.7v-6.3c1.3,1.4,3.1,2.3,5.6,2.3c4.9,0,9.1-4.3,9.1-10C84.8,14.4,80.7,10,75.7,10z
	 M74.6,24.7c-2.6,0-4.5-1.8-4.5-4.6c0-2.9,1.9-4.6,4.5-4.6c2.6,0,4.5,1.8,4.5,4.6C79.1,22.9,77.2,24.7,74.6,24.7z"/>
<path class="st0" d="M134.6,10.6h-3.3V8c0-0.4-0.3-0.7-0.7-0.7h-4.3c-0.4,0-0.7,0.3-0.7,0.7v14.7c0,5.3,2.2,7.5,9.6,6.8v-5.1
	c-2.5,0.2-3.9,0-3.9-1.6v-7h3.3c0.3,0,0.6-0.3,0.6-0.6v-3.9C135.2,10.8,134.9,10.6,134.6,10.6z"/>
<path class="st0" d="M209.9,10.6h-3.3V8c0-0.4-0.3-0.7-0.7-0.7h-4.3c-0.4,0-0.7,0.3-0.7,0.7v14.7c0,5.3,2.2,7.5,9.6,6.8v-5.1
	c-2.5,0.2-3.9,0-3.9-1.6v-7h3.3c0.3,0,0.6-0.3,0.6-0.6v-3.9C210.5,10.8,210.2,10.6,209.9,10.6z"/>
<path class="st0" d="M122.6,10.5c-2.4,0-4.8,0.8-6.3,2.4v-1.6c0-0.4-0.3-0.7-0.7-0.7h-4.3c-0.4,0-0.7,0.3-0.7,0.7v17.6
	c0,0.4,0.3,0.7,0.7,0.7h4.3c0.4,0,0.7-0.3,0.7-0.7v-8.3c0-3.7,4-4.6,6.3-4.6c0.3,0,0.6-0.3,0.6-0.6v-4.2
	C123.2,10.8,123,10.5,122.6,10.5z"/>
<path class="st0" d="M197.8,10.5c-2.4,0-4.8,0.8-6.3,2.4v-1.6c0-0.4-0.3-0.7-0.7-0.7h-4.3c-0.4,0-0.7,0.3-0.7,0.7v17.6
	c0,0.4,0.3,0.7,0.7,0.7h4.3c0.4,0,0.7-0.3,0.7-0.7v-8.3c0-3.7,4-4.6,6.3-4.6c0.3,0,0.6-0.3,0.6-0.6v-4.2
	C198.4,10.8,198.1,10.5,197.8,10.5z"/>
<path class="st0" d="M270.7,10.5c-2.4,0-4.8,0.8-6.3,2.4v-1.6c0-0.4-0.3-0.7-0.7-0.7h-4.3c-0.4,0-0.7,0.3-0.7,0.7v17.6
	c0,0.4,0.3,0.7,0.7,0.7h4.3c0.4,0,0.7-0.3,0.7-0.7v-8.3c0-3.7,4-4.6,6.3-4.6c0.3,0,0.6-0.3,0.6-0.6v-4.2
	C271.3,10.8,271,10.5,270.7,10.5z"/>
<path class="st0" d="M149.9,10c-2.6,0-4.4,0.9-5.6,2.3v-1.1c0-0.4-0.3-0.7-0.7-0.7h-4.3c-0.4,0-0.7,0.3-0.7,0.7v22.8
	c0,0.4,0.3,0.7,0.7,0.7h4.3c0.4,0,0.7-0.3,0.7-0.7v-6.3c1.3,1.4,3.1,2.3,5.6,2.3c4.9,0,9.1-4.3,9.1-10C159,14.4,154.9,10,149.9,10z
	 M148.8,24.7c-2.6,0-4.5-1.8-4.5-4.6c0-2.9,1.9-4.6,4.5-4.6c2.6,0,4.5,1.8,4.5,4.6C153.3,22.9,151.4,24.7,148.8,24.7z"/>
<path class="st0" d="M181,10.6h-4.3c-0.4,0-0.7,0.3-0.7,0.7v1.1c-1.3-1.4-3.1-2.3-5.6-2.3c-4.9,0-9.1,4.3-9.1,10
	c0,5.7,4.1,10,9.1,10c2.6,0,4.4-0.9,5.6-2.3v1.1c0,0.4,0.3,0.7,0.7,0.7h4.3c0.4,0,0.7-0.3,0.7-0.7V11.3
	C181.7,10.9,181.3,10.6,181,10.6z M171.4,24.7c-2.6,0-4.5-1.8-4.5-4.6c0-2.9,1.9-4.6,4.5-4.6c2.6,0,4.5,1.8,4.5,4.6
	C175.9,22.9,174.1,24.7,171.4,24.7z"/>
<path class="st0" d="M225.7,10c-2.5,0-4.4,0.9-5.4,2.3v-1.1c0-0.4-0.3-0.7-0.7-0.7h-4.3c-0.4,0-0.7,0.3-0.7,0.7v17.6
	c0,0.4,0.3,0.7,0.7,0.7h4.3c0.4,0,0.7-0.3,0.7-0.7v-9.6c0-2.7,1.4-3.9,3.5-3.9c1.8,0,3.3,1.1,3.3,3.4v10.1c0,0.4,0.3,0.7,0.7,0.7
	h4.3c0.4,0,0.7-0.3,0.7-0.7v-11C232.8,12.7,229.6,10,225.7,10z"/>
<path class="st0" d="M14.3,22.9c-4.6,0-8.3-3.5-8.6-8c-0.3-4.9,3.7-9.1,8.6-9.1V0C6.2,0-0.2,6.8,0,14.8c0.3,7.7,6.5,13.8,14.3,13.8
	c1.6,0,2.9-1.3,2.9-2.9C17.1,24.1,15.8,22.9,14.3,22.9z"/>
<path class="st0" d="M14.3,11.4c-1.6,0-2.9,1.3-2.9,2.9s1.3,2.9,2.9,2.9c4.7,0,8.6,3.8,8.6,8.6c0,4.7-3.8,8.6-8.6,8.6V40
	c7.9,0,14.3-6.4,14.3-14.3C28.6,17.8,22.2,11.4,14.3,11.4z"/>
<path class="st0" d="M10,6.9c3.8-2.2,8.5-1.1,11.1,2.2c0.4,0.5,1.1,0.6,1.6,0.3l2.8-1.6c0.6-0.4,0.8-1.2,0.4-1.8
	C21.7,0.1,13.6-1.8,7.2,1.9C0.7,5.7-1.8,13.6,1.3,20.2c0.3,0.6,1.1,0.9,1.8,0.6l2.8-1.6c0.5-0.3,0.8-1,0.5-1.6
	C4.7,13.7,6.2,9,10,6.9z"/>
<path class="st0" d="M18.5,33.1c3.8-2.2,5.3-6.8,3.6-10.7c-0.2-0.6,0-1.3,0.5-1.6l2.8-1.6c0.6-0.4,1.4-0.1,1.8,0.6
	c3,6.6,0.6,14.6-5.9,18.3C14.9,41.8,6.8,39.9,2.6,34c-0.4-0.6-0.2-1.4,0.4-1.8l2.8-1.6c0.5-0.3,1.2-0.2,1.6,0.3
	C10,34.3,14.8,35.3,18.5,33.1z"/>
<path class="st0" d="M14.3,11.4c-1.6,0-2.9,1.3-2.9,2.9s1.3,2.9,2.9,2.9c4.7,0,8.6,3.8,8.6,8.6c0,4.7-3.8,8.6-8.6,8.6V40
	c7.9,0,14.3-6.4,14.3-14.3C28.6,17.8,22.2,11.4,14.3,11.4z"/>
</svg>
