<svg id="illustraties_outlines" data-name="illustraties outlines" xmlns="http://www.w3.org/2000/svg" viewBox="0 0 200 200"><defs><style>.cls-1,.cls-3,.cls-5,.cls-6{fill:#fff;}.cls-1,.cls-7{opacity:0.2;}.cls-2{opacity:0.4;}.cls-4{opacity:0.8;}.cls-5,.cls-8{opacity:0.5;}.cls-6{opacity:0.9;}.cls-9{opacity:0.6;}</style></defs><title>membership-expired-light</title><path class="cls-1" d="M60,108H40a1,1,0,0,1-1-1v-1H60v-2H36a1,1,0,0,1-1-1v-1H60v-2H33a1,1,0,0,1-1-1V47a1,1,0,0,1,1-1H69a1,1,0,0,1,1,1v8h2V51h1a1,1,0,0,1,1,1v3h5.82A3,3,0,0,0,77,53H76V52a3,3,0,0,0-3-3H72V47a3,3,0,0,0-3-3H33a3,3,0,0,0-3,3V99a3,3,0,0,0,3,3v1a3,3,0,0,0,3,3h1v1a3,3,0,0,0,3,3H60Z"/><g class="cls-2"><path class="cls-3" d="M60,79V57a2,2,0,0,1,2-2h3V51H37V79h6V78a6,6,0,0,1,6-6V69.86A4,4,0,0,1,46,66V61a5,5,0,0,1,10,0v5a4,4,0,0,1-3,3.86V72a6,6,0,0,1,6,6v1Z"/></g><g class="cls-2"><rect class="cls-3" x="36" y="85" width="24" height="2"/></g><g class="cls-2"><rect class="cls-3" x="36" y="89" width="24" height="2"/></g><g class="cls-2"><rect class="cls-3" x="36" y="93" width="24" height="2"/></g><g class="cls-2"><g class="cls-4"><path class="cls-5" d="M139.72,56h21.33c0-.33-.05-.66-.05-1H138A2,2,0,0,1,139.72,56Z"/><path class="cls-5" d="M169,64.8V95a3,3,0,0,1-3,3H140v1h26a4,4,0,0,0,4-4V65A8.31,8.31,0,0,1,169,64.8Z"/><path class="cls-3" d="M179,44h-8a11,11,0,0,0-11,11H138a2,2,0,0,1,2,2h20.19A11,11,0,0,0,169,65.81V98a3,3,0,0,1-3,3H140v2h26a5,5,0,0,0,5-5V69a1,1,0,0,0,.57.9.94.94,0,0,0,.43.1,1,1,0,0,0,.62-.22L177.35,66H179a11,11,0,0,0,0-22Zm0,20h-2a1,1,0,0,0-.62.22L173,66.92V65a1,1,0,0,0-1-1h-1a9,9,0,0,1,0-18h8a9,9,0,0,1,0,18Z"/></g><path class="cls-3" d="M142,68.73a1,1,0,0,0-1.23-.69l-.72.2v2.08l1.26-.36A1,1,0,0,0,142,68.73Z"/><circle class="cls-3" cx="143.99" cy="64" r="2"/><path class="cls-3" d="M162.92,72.65l0-.07a1,1,0,0,0-.18-.27l-.05,0a.58.58,0,0,0-.12-.1l-.12-.07-.06,0A1,1,0,0,0,162,72H162a.72.72,0,0,0-.33.07h0l-7,3a1,1,0,0,0,0,1.84L161,79.66v10c-2-.52-6.31-1.54-11.62-2.38A23.42,23.42,0,0,0,151,79c0-4-3.3-8.33-5.13-10.44L152.23,67a1,1,0,1,0-.48-1.94l-8,2a1.23,1.23,0,0,0-.31.14l0,0,0,0a1,1,0,0,0-.23.24s0,0,0,0a.8.8,0,0,0-.11.25.2.2,0,0,0,0,.07.28.28,0,0,0,0,.09.94.94,0,0,0,0,.29.07.07,0,0,1,0,0,1.15,1.15,0,0,0,.14.32l0,0c4.51,6.32,3.86,9.1,3.86,9.1l0,.12a24.79,24.79,0,0,1-3.23,7.75l2.2.26a27.28,27.28,0,0,0,3-7.47A4.89,4.89,0,0,1,149,79a21.61,21.61,0,0,1-1.66,8c-2.32-.33-4.79-.6-7.33-.78v2A123.07,123.07,0,0,1,161.72,92a.84.84,0,0,0,.27,0,1,1,0,0,0,1-1V73A1,1,0,0,0,162.92,72.65ZM161,77.48,157.53,76,161,74.52Z"/></g><g class="cls-2"><path class="cls-3" d="M58,144.06v-.49A5,5,0,0,0,61,139v-5a6,6,0,0,0-12,0v5a5,5,0,0,0,3,4.57v.49a9,9,0,0,0-6.75,4.39A7,7,0,0,0,42,147.07v-.5A5,5,0,0,0,45,142v-5a6,6,0,0,0-12,0v5a5,5,0,0,0,3,4.57v.5A7,7,0,0,0,30,154v1a1,1,0,0,0,1,1H44a1,1,0,0,0,0-2H32a5,5,0,0,1,5-5,1,1,0,0,0,1-1v-2.14a1,1,0,0,0-.75-1A3,3,0,0,1,35,142v-5a4,4,0,0,1,8,0v5a3,3,0,0,1-2.25,2.89,1,1,0,0,0-.75,1V148a1,1,0,0,0,1,1,4.93,4.93,0,0,1,3.4,1.36A8.83,8.83,0,0,0,44,153v3H65a1,1,0,0,0,1-1v-2A9,9,0,0,0,58,144.06ZM64,154H46v-1a7,7,0,0,1,7-7,1,1,0,0,0,1-1v-2.14a1,1,0,0,0-.75-1A3,3,0,0,1,51,139v-5a4,4,0,0,1,8,0v5a3,3,0,0,1-2.25,2.89,1,1,0,0,0-.75,1V145a1,1,0,0,0,1,1,7,7,0,0,1,7,7Z"/><circle class="cls-3" cx="146.02" cy="121" r="2"/><circle class="cls-3" cx="161.52" cy="128.5" r="1.5"/><path class="cls-3" d="M147.73,124.29a1,1,0,0,0-.32-.21A1.09,1.09,0,0,0,147,124h-1a.86.86,0,0,0-.28,0l-.09,0-.16.07-.09.08a.58.58,0,0,0-.12.1.41.41,0,0,0-.07.11.54.54,0,0,0-.09.12,31.09,31.09,0,0,1-2.64,4.55,5,5,0,0,1-2.48-.06v2.07a7.15,7.15,0,0,0,3.34-.17,1.06,1.06,0,0,0,.39-.24,20.53,20.53,0,0,0,2.46-3.85,39.93,39.93,0,0,1,3.36,5.22c-2.13.18-5.42.73-6.4,2.42-.86,1.5-.31,6.22-.12,7.63a1,1,0,0,0,1,.87h.13a1,1,0,0,0,.86-1.12c-.38-2.85-.44-5.82-.12-6.37.47-.81,3.56-1.43,6.16-1.5a.93.93,0,0,0,.43-.12,36.82,36.82,0,0,1,2.56,8.3,1,1,0,0,0,1,.82l.18,0a1,1,0,0,0,.8-1.16C154,130.64,148,124.55,147.73,124.29Z"/><g class="cls-4"><path class="cls-5" d="M166,108H140v1h26a3,3,0,0,1,3,3v36a3,3,0,0,1-3,3H130a3,3,0,0,1-3-3v-3h-1v3a4,4,0,0,0,4,4h36a4,4,0,0,0,4-4V112A4,4,0,0,0,166,108Z"/><path class="cls-6" d="M166,108H140v2h26a3,3,0,0,1,3,3v38a3,3,0,0,1-3,3H130a3,3,0,0,1-3-3v-6h-2v6a5,5,0,0,0,5,5h36a5,5,0,0,0,5-5V113A5,5,0,0,0,166,108Z"/></g><path class="cls-3" d="M190,156H12a1,1,0,0,1,0-2H190a1,1,0,0,1,0,2Z"/></g><path class="cls-3" d="M138,146H62a3,3,0,0,1-3-3V57a3,3,0,0,1,3-3h76a3,3,0,0,1,3,3v86A3,3,0,0,1,138,146ZM62,56a1,1,0,0,0-1,1v86a1,1,0,0,0,1,1h76a1,1,0,0,0,1-1V57a1,1,0,0,0-1-1Z"/><g class="cls-7"><rect class="cls-3" x="79" y="47" width="42" height="16" rx="1"/></g><path class="cls-3" d="M100,119.5a23,23,0,1,1,23-23A23,23,0,0,1,100,119.5Zm0-44a21,21,0,1,0,21,21A21,21,0,0,0,100,75.5Z"/><g class="cls-2"><rect class="cls-3" x="75" y="131" width="50" height="2"/></g><g class="cls-2"><rect class="cls-3" x="75" y="127" width="50" height="2"/></g><g class="cls-2"><rect class="cls-3" x="75" y="135" width="50" height="2"/></g><g class="cls-8"><path class="cls-3" d="M100,78.5a18,18,0,1,0,18,18A18,18,0,0,0,100,78.5Zm14,21H86a1,1,0,0,1-1-1v-4a1,1,0,0,1,1-1h28a1,1,0,0,1,1,1v4A1,1,0,0,1,114,99.5Z"/></g><g class="cls-2"><path class="cls-3" d="M28,135a1,1,0,0,1-.62-.22L22.65,131H21a11,11,0,0,1,0-22h8a11,11,0,0,1,0,22v3a1,1,0,0,1-.57.9A.91.91,0,0,1,28,135Zm-7-24a9,9,0,0,0,0,18h2a1,1,0,0,1,.62.22l3.38,2.7V130a1,1,0,0,1,1-1h1a9,9,0,0,0,0-18Z"/></g><g class="cls-9"><path class="cls-3" d="M171,60a1,1,0,0,1-.71-.29,1,1,0,0,1,0-1.42l8-8a1,1,0,1,1,1.42,1.42l-8,8A1,1,0,0,1,171,60Z"/><path class="cls-3" d="M179,60a1,1,0,0,1-.71-.29l-8-8a1,1,0,0,1,1.42-1.42l8,8a1,1,0,0,1,0,1.42A1,1,0,0,1,179,60Z"/></g><g class="cls-7"><path class="cls-3" d="M140.5,60H140v83a2,2,0,0,1-2,2H62a2,2,0,0,1-2-2V60h-.5a4,4,0,0,0-4,4v82a4,4,0,0,0,4,4h81a4,4,0,0,0,4-4V64A4,4,0,0,0,140.5,60Z"/></g><g class="cls-9"><path class="cls-3" d="M29,125a1,1,0,0,1-.71-.29l-8-8a1,1,0,0,1,1.42-1.42l8,8a1,1,0,0,1,0,1.42A1,1,0,0,1,29,125Z"/><path class="cls-3" d="M21,125a1,1,0,0,1-.71-.29,1,1,0,0,1,0-1.42l8-8a1,1,0,1,1,1.42,1.42l-8,8A1,1,0,0,1,21,125Z"/></g></svg>