<svg width="109" height="94" viewBox="0 0 109 94" fill="none" xmlns="http://www.w3.org/2000/svg">
<g opacity="0.1">
<path d="M102.2 34.7C102 36.1 101.7 37.3 101.4 38.4C100.2 42.7 97 46.1 92.8 47.5C89.3 48.6 84.3 49.8 77.3 50.4L69 62L60.7 50.4C53.8 49.8 48.7 48.6 45.2 47.5C41 46.1 37.8 42.7 36.6 38.4C35.7 35.3 35 31.1 35 25.9C35 24.9 35 23.9 35.1 23C32 22.6 29.6 20.2 29.1 17.2C25.1 18 21.7 18.8 19 19.7C12.9 21.6 8.2 26.4 6.4 32.5C5.1 36.7 4 42.6 4 50C4 55.4 4.6 60 5.4 63.8C8.2 62 11.5 61 15 61C24.9 61 33 69.1 33 79C33 80.5 32.8 82 32.4 83.5C38.3 84.4 45.4 85 54 85C70.7 85 82 82.6 89 80.4C89.3 80.3 89.7 80.2 90 80C90 79.8 90 79.6 90 79.4C90 78 90.2 76.9 90.4 76.1C90.7 75 91.6 74.1 92.7 73.7C94 73.4 96 73 99 73C99 73 99 73 99.1 73C100.2 71.4 101.1 69.6 101.7 67.6C103 63.2 104.1 57.3 104.1 50C104 43.9 103.2 38.7 102.2 34.7Z" fill="#716E6C"/>
<path d="M84 20H50C49.4 20 49 19.6 49 19V17C49 16.4 49.4 16 50 16H84C84.6 16 85 16.4 85 17V19C85 19.6 84.6 20 84 20Z" fill="#716E6C"/>
<path d="M88 28H50C49.4 28 49 27.6 49 27V25C49 24.4 49.4 24 50 24H88C88.6 24 89 24.4 89 25V27C89 27.6 88.6 28 88 28Z" fill="#716E6C"/>
<path d="M78 36H50C49.4 36 49 35.6 49 35V33C49 32.4 49.4 32 50 32H78C78.6 32 79 32.4 79 33V35C79 35.6 78.6 36 78 36Z" fill="#716E6C"/>
<path d="M6.3 82.7C7.8 85.8 11.1 88.5 15 88.5C18.9 88.5 22.2 85.7 23.7 82.7C23.7 82.7 19.3 84.8 15 84.8C10.7 84.8 6.3 82.7 6.3 82.7Z" fill="#716E6C"/>
</g>
<path d="M99 90C98.7 90 98.4 89.9 98.2 89.6L96.1 86.9C94.7 86.8 93.4 86.5 92.3 86.1C90.9 85.6 89.8 84.5 89.4 83C89.2 82 89 80.8 89 79.5C89 78.2 89.2 77 89.5 76C89.9 74.5 91 73.4 92.4 72.9C93.7 72.5 95.8 72 99 72C102.2 72 104.4 72.5 105.6 72.9C107 73.4 108.1 74.5 108.5 76C108.8 77.1 109 78.3 109 79.5C109 80.7 108.8 82 108.5 83C108.1 84.5 107 85.6 105.6 86.1C104.5 86.5 103.3 86.7 101.8 86.9L99.7 89.6C99.6 89.9 99.3 90 99 90ZM99 74C96.1 74 94.1 74.4 93 74.8C92.2 75.1 91.6 75.7 91.4 76.5C91.1 77.4 91 78.4 91 79.5C91 80.6 91.1 81.6 91.4 82.5C91.6 83.3 92.2 83.9 93 84.2C93.7 84.4 95 84.7 96.8 84.9C97.1 84.9 97.3 85.1 97.5 85.3L99 87.3L100.5 85.3C100.7 85.1 100.9 84.9 101.2 84.9C103 84.7 104.2 84.4 105 84.2C105.8 83.9 106.4 83.3 106.6 82.5C106.9 81.6 107 80.6 107 79.5C107 78.4 106.9 77.4 106.6 76.5C106.4 75.7 105.8 75.1 105 74.8C103.9 74.4 101.9 74 99 74Z" fill="#716E6C"/>
<path d="M15 94C6.7 94 0 87.3 0 79C0 70.7 6.7 64 15 64C23.3 64 30 70.7 30 79C30 87.3 23.3 94 15 94ZM15 66C7.8 66 2 71.8 2 79C2 86.2 7.8 92 15 92C22.2 92 28 86.2 28 79C28 71.8 22.2 66 15 66Z" fill="#716E6C"/>
<path d="M15 89.5C9.4 89.5 4.5 84.8 4.5 79.5C4.5 79.2 4.7 78.8 5 78.7C5.3 78.5 5.6 78.5 6 78.6C6 78.6 10.4 80.5 15.1 80.5C19.8 80.5 24.2 78.6 24.2 78.6C24.5 78.5 24.9 78.5 25.2 78.7C25.5 78.9 25.7 79.2 25.7 79.5C25.5 84.8 20.6 89.5 15 89.5ZM6.7 81C7.5 84.3 10.8 87.5 15 87.5C19.2 87.5 22.5 84.3 23.3 81C21.5 81.6 18.4 82.5 15 82.5C11.6 82.5 8.5 81.6 6.7 81Z" fill="#716E6C"/>
<path d="M11 72C9.9 72 9 73.1 9 74.5C9 75.9 9.9 77 11 77C12.1 77 13 75.9 13 74.5C13 73.1 12.1 72 11 72Z" fill="#716E6C"/>
<path d="M19 72C17.9 72 17 73.1 17 74.5C17 75.9 17.9 77 19 77C20.1 77 21 75.9 21 74.5C21 73.1 20.1 72 19 72Z" fill="#716E6C"/>
<path d="M36 19C37.6569 19 39 17.6569 39 16C39 14.3431 37.6569 13 36 13C34.3431 13 33 14.3431 33 16C33 17.6569 34.3431 19 36 19Z" fill="#716E6C"/>
<path d="M102.3 13.1C101 8.5 97.5 4.8 93.1 3.3C88.6 1.8 80.7 0 69 0C57.3 0 49.4 1.8 44.9 3.3C41.8 4.3 39.2 6.4 37.4 9.2C38.1 9.3 38.7 9.6 39.3 9.9C40.9 7.7 43 6 45.5 5.2C49.9 3.7 57.6 2 69 2C80.4 2 88.1 3.7 92.5 5.2C96.3 6.5 99.3 9.6 100.4 13.6C101.5 17.3 102 21.5 102 25.8C102 30.2 101.5 34.3 100.4 38C99.3 42 96.3 45.2 92.5 46.4C88.2 47.8 83 48.8 77.3 49.3C77 49.3 76.7 49.5 76.6 49.7L69 60.3L61.5 49.8C61.3 49.6 61.1 49.4 60.8 49.4C55 48.9 49.9 48 45.6 46.5C41.8 45.2 38.8 42.1 37.7 38.1C36.6 34.4 36.1 30.2 36.1 25.9C36.1 24.9 36.1 24 36.2 23H36.1C35.4 23 34.8 22.9 34.2 22.7C34.1 23.7 34.1 24.8 34.1 25.8C34.1 30.4 34.7 34.7 35.8 38.6C37.1 43.2 40.6 46.9 45 48.4C49.4 49.8 54.5 50.8 60.2 51.3L68.3 62.5C68.5 62.8 68.8 62.9 69.1 62.9C69.4 62.9 69.7 62.7 69.9 62.5L78 51.3C83.8 50.8 88.9 49.8 93.2 48.4C97.7 46.9 101.1 43.3 102.4 38.6C103.5 34.7 104.1 30.4 104.1 25.8C104 21.3 103.4 17 102.3 13.1Z" fill="#716E6C"/>
</svg>
