<svg width="22" height="30" viewBox="0 0 22 30" fill="none" xmlns="http://www.w3.org/2000/svg">
<path d="M0.0341763 11.6C0.0341763 11.6143 0.0341763 11.6286 0.0341763 11.6286C0.0341763 11.7 0.0484618 11.7714 0.0484618 11.8429C0.0484618 11.8714 0.0484616 11.8857 0.0627473 11.9143C0.0627473 11.9714 0.0770328 12.0286 0.0770328 12.0857C0.0770328 12.1286 0.0913183 12.1571 0.0913183 12.2C0.0913183 12.2429 0.105605 12.2857 0.105605 12.3286C0.119891 12.3714 0.11989 12.4286 0.134176 12.4714C0.134176 12.5 0.148461 12.5286 0.148461 12.5571C0.162747 12.6143 0.177033 12.6714 0.177033 12.7429C0.177033 12.7571 0.177033 12.7714 0.191319 12.7857C0.205605 12.8571 0.21989 12.9286 0.234175 13C1.29132 17.8 5.57703 21.4 10.6913 21.4C11.877 21.4 12.8342 20.4429 12.8342 19.2571C12.8342 18.0714 11.877 17.1143 10.6913 17.1143C8.03417 17.1143 5.76275 15.5 4.77703 13.2C4.77703 13.1857 4.76275 13.1857 4.76275 13.1714C4.14846 11.7143 4.11989 10.1143 4.59132 8.67143C4.59132 8.65714 4.6056 8.64285 4.6056 8.62857C4.61989 8.57143 4.64846 8.51429 4.66275 8.44286C5.44846 6.35714 7.27703 4.78571 9.49132 4.35714C9.54846 4.34286 9.6056 4.34286 9.66275 4.32857C9.69132 4.32857 9.7056 4.31428 9.73417 4.31428C12.0056 3.97143 14.3627 4.88571 15.8056 6.77143C16.0913 7.14286 16.6056 7.25714 17.0056 7.01429L19.1199 5.78571C19.5913 5.51428 19.7342 4.88571 19.4199 4.44286C17.377 1.6 14.0913 0 10.7056 0H10.6913C10.677 0 10.6627 0 10.6485 0C10.577 0 10.5199 0 10.4485 0C10.4342 0 10.4056 0 10.3913 0C10.1199 0.0142857 9.84846 0.0285716 9.57703 0.0571431C9.57703 0.0571431 9.57703 0.0571431 9.56275 0.0571431C9.47703 0.0714288 9.39132 0.0714283 9.3056 0.0857141H9.29132C9.2056 0.0999998 9.11989 0.114286 9.03417 0.128572H9.01989C8.93417 0.142857 8.84846 0.157142 8.76274 0.171428C7.59132 0.385714 6.43418 0.8 5.34846 1.42857C2.83418 2.88571 1.11989 5.21429 0.391319 7.8C0.391319 7.8 0.391319 7.8 0.391319 7.81428C0.377033 7.88571 0.348462 7.95714 0.334176 8.02857C0.31989 8.05714 0.31989 8.08571 0.305604 8.11428C0.291318 8.15714 0.291319 8.2 0.277033 8.24286C0.262747 8.3 0.248462 8.34286 0.248462 8.4C0.248462 8.41428 0.234175 8.44285 0.234175 8.45714C0.134175 8.91428 0.0627477 9.37143 0.0341763 9.84285C0.0341763 9.85714 0.0341763 9.85714 0.0341763 9.87143C0.0341763 9.94286 0.0198897 10 0.0198897 10.0714C0.0198897 10.1 0.0198897 10.1143 0.0198897 10.1429C0.0198897 10.2 0.01989 10.2571 0.00560424 10.3143C0.00560424 10.3571 0.00560424 10.3857 0.00560424 10.4286C0.00560424 10.4714 0.00560424 10.5143 0.00560424 10.5571C0.00560424 10.6143 0.00560424 10.6714 0.00560424 10.7429C0.00560424 10.7714 0.00560424 10.7857 0.00560424 10.8143C-0.00868147 11.0714 0.00560489 11.3429 0.0341763 11.6Z" fill="white"/>
<path d="M11.2199 29.9857C11.2342 29.9857 11.2485 29.9857 11.277 29.9857C11.3627 29.9857 11.4485 29.9714 11.5342 29.9714H11.5485C11.6342 29.9714 11.7199 29.9571 11.8056 29.9429C11.8627 29.9429 11.9199 29.9286 11.977 29.9286C12.0056 29.9286 12.0199 29.9286 12.0485 29.9143C12.1199 29.9 12.1913 29.9 12.277 29.8857H12.2913C14.5485 29.5571 16.577 28.5143 18.1485 27.0143C18.3913 26.7857 18.6056 26.5429 18.8199 26.3C18.8199 26.2857 18.8342 26.2857 18.8342 26.2714C18.877 26.2143 18.9342 26.1571 18.977 26.1143C19.0056 26.0857 19.0199 26.0571 19.0485 26.0286C19.077 25.9857 19.1056 25.9571 19.1342 25.9143C19.1627 25.8714 19.2056 25.8286 19.2342 25.7857C19.2485 25.7714 19.2627 25.7571 19.277 25.7286C20.5627 24.0286 21.3485 21.9429 21.4342 19.6714C21.4342 19.6571 21.4342 19.6429 21.4342 19.6286C21.4342 19.5714 21.4342 19.5143 21.4342 19.4571C21.4342 19.4143 21.4342 19.3714 21.4342 19.3286C21.4342 19.3143 21.4342 19.2857 21.4342 19.2714C21.4342 19.2571 21.4342 19.2429 21.4342 19.2286C21.4342 19.1714 21.4342 19.1143 21.4342 19.0429C21.4342 19.0143 21.4342 19 21.4342 18.9714C21.4342 18.9 21.4342 18.8286 21.4199 18.7429C21.4199 18.7286 21.4199 18.7143 21.4199 18.7143C21.4056 18.4429 21.377 18.1857 21.3485 17.9143C21.3485 17.8857 21.3485 17.8571 21.3342 17.8429C21.3199 17.7857 21.3199 17.7286 21.3056 17.6714C21.2913 17.6286 21.2913 17.5714 21.277 17.5286C21.277 17.5 21.2627 17.4714 21.2627 17.4286C21.2485 17.3714 21.2342 17.3 21.2342 17.2429C21.2342 17.2286 21.2342 17.2143 21.2199 17.2C21.2056 17.1286 21.1913 17.0571 21.177 16.9714C21.177 16.9714 21.177 16.9714 21.177 16.9571C20.1199 12.1571 15.8342 8.55715 10.7199 8.55715C9.53418 8.55715 8.57704 9.51429 8.57704 10.7C8.57704 11.8857 9.53418 12.8429 10.7199 12.8429C13.377 12.8429 15.6485 14.4571 16.6342 16.7571C16.6342 16.7714 16.6485 16.7857 16.6485 16.8C17.877 19.7429 16.7627 23.2143 13.9342 24.8429C11.1056 26.4714 7.53418 25.7143 5.60561 23.1714C5.31989 22.8 4.80561 22.6857 4.40561 22.9286L2.29132 24.1571C1.81989 24.4286 1.67704 25.0571 1.99132 25.5C4.04846 28.4 7.34846 30 10.7199 30C10.7342 30 10.7485 30 10.7627 30C10.8199 30 10.877 30 10.9342 30C10.9627 30 10.9913 30 11.0199 30C11.077 30 11.1485 29.9857 11.2199 29.9857Z" fill="white"/>
</svg>
